<?xml version="1.0" standalone="no"?>
<!DOCTYPE svg PUBLIC "-//W3C//DTD SVG 1.1//EN" "http://www.w3.org/Graphics/SVG/1.1/DTD/svg11.dtd" >
<svg xmlns="http://www.w3.org/2000/svg">
<metadata>Generated by IcoMoon</metadata>
<defs>
<font id="icomoon" horiz-adv-x="1024">
<font-face units-per-em="1024" ascent="960" descent="-64" />
<missing-glyph horiz-adv-x="1024" />
<glyph unicode="&#x20;" horiz-adv-x="512" d="" />
<glyph unicode="&#xe900;" glyph-name="ek-001" d="M540.32 841.16v14.2h6.28c15.563 0 28.18 12.617 28.18 28.18s-12.617 28.18-28.18 28.18h-68.92c-15.563 0-28.18-12.617-28.18-28.18s12.617-28.18 28.18-28.18h6.32v-14.2c-223.428-15.224-398.9-200.195-398.9-426.149 0-235.87 191.21-427.080 427.080-427.080s427.080 191.21 427.080 427.080c0 225.955-175.472 410.925-397.582 426.077zM512.32 44.36c-204.743 0-370.72 165.977-370.72 370.72s165.977 370.72 370.72 370.72c204.743 0 370.72-165.977 370.72-370.72-0.25-204.755-166.26-370.652-371.033-370.72zM678.48 439.32h-138.16v221.64c0 17.36-12.6 31.44-28 31.44s-28-14.080-28-31.44v-246.56c0-0.6 0-1.12 0-1.72s0-1 0-1.56c0-15.464 12.536-28 28-28h166.32c15.563 0 28.18 12.617 28.18 28.18s-12.617 28.18-28.18 28.18z" />
<glyph unicode="&#xe901;" glyph-name="ek-002" d="M514 905.68c-253.41 0-458.84-205.43-458.84-458.84s205.43-458.84 458.84-458.84c253.41 0 458.84 205.43 458.84 458.84-0.296 253.291-205.549 458.544-458.812 458.84zM514 48.56c-219.964 0-398.28 178.316-398.28 398.28s178.316 398.28 398.28 398.28c219.964 0 398.28-178.316 398.28-398.28-0.273-219.854-178.426-398.007-398.253-398.28zM692.68 472.88h-148.4v238.12c0 18.64-13.56 33.76-30.28 33.76s-30.28-15.12-30.28-33.76v-264.88c0-0.64 0-1.24 0-1.84s0-1.080 0-1.64c0-16.723 13.557-30.28 30.28-30.28h178.68c16.723 0 30.28 13.557 30.28 30.28s-13.557 30.28-30.28 30.28z" />
<glyph unicode="&#xe902;" glyph-name="ek-003" d="M512.72 909.2c-254.382 0-460.6-206.218-460.6-460.6s206.218-460.6 460.6-460.6c254.382 0 460.6 206.218 460.6 460.6-0.296 254.263-206.337 460.304-460.571 460.6zM512.72 830.24c0.062 0 0.136 0 0.21 0 91.376 0 175.214-32.276 240.735-86.049l-537.105-535.871c-53.23 65.049-85.488 149.057-85.488 240.6 0 210.597 170.723 381.32 381.32 381.32 0.059 0 0.118 0 0.178 0zM512.72 66.96c-0.074 0-0.162 0-0.25 0-91.376 0-175.214 32.276-240.735 86.049l537.065 535.911c53.25-65.055 85.521-149.079 85.521-240.64 0-210.597-170.723-381.32-381.32-381.32-0.070 0-0.141 0-0.211 0z" />
<glyph unicode="&#xe903;" glyph-name="ek-004" d="M685.12 910.56c-0.158 0-0.345 0.001-0.532 0.001-154.154 0-279.12-124.966-279.12-279.12 0-64.997 22.216-124.805 59.469-172.244-1.137 0.004-1.977-0.196-2.657-0.836l-390.6-390.68c-7.547-6.632-12.285-16.306-12.285-27.085 0-19.882 16.118-36 36-36 10.78 0 20.453 4.738 27.050 12.245l7.275 7.16 25.6-25.6c6.299-5.536 14.612-8.915 23.715-8.915 19.882 0 36 16.118 36 36 0 9.103-3.378 17.416-8.95 23.755l-25.565 25.56 26.92 26.92c1.462-3.056 3.212-5.688 5.274-8.039l6.846-6.841c6.509-6.481 15.487-10.488 25.4-10.488s18.891 4.007 25.401 10.49l-0.001-0.001c6.481 6.509 10.488 15.487 10.488 25.4s-4.007 18.891-10.49 25.401l-6.879 6.879c-2.312 2.028-4.944 3.778-7.792 5.15l257.352 257.65c0.68 0.68 0.92 1.56 1.52 2.28 46.618-36.131 105.934-57.92 170.34-57.92 154.33 0 279.44 125.11 279.44 279.44 0 154.253-124.984 279.314-279.207 279.44zM685.12 423.24c-114.743 0-207.76 93.017-207.76 207.76s93.017 207.76 207.76 207.76c114.743 0 207.76-93.017 207.76-207.76-0.114-114.705-93.058-207.664-207.747-207.8z" />
<glyph unicode="&#xe904;" glyph-name="ek-005" d="M663.36 706.64h-290.2c-0.43 3.989-0.675 8.615-0.675 13.3 0 72.57 58.83 131.4 131.4 131.4 25.97 0 50.181-7.534 70.565-20.536 36.79-23.204 64.030 29.756 31.070 50.516-28.831 18.457-64.001 29.42-101.731 29.42-105.265 0-190.6-85.335-190.6-190.6 0-6.628 0.338-13.176 0.999-19.63-93.227-20.991-161.579-103.259-161.787-201.526v-303.303c0.182-114.597 93.009-207.453 207.578-207.68h303.302c114.625 0.182 207.498 93.055 207.68 207.662v303.298c-0.182 114.597-93.009 207.453-207.578 207.68zM811.68 195.68c-0.114-81.869-66.451-148.206-148.309-148.32h-303.371c-81.869 0.114-148.206 66.451-148.32 148.309v303.291c0.114 81.869 66.451 148.206 148.309 148.32h303.291c81.869-0.114 148.206-66.451 148.32-148.309zM501.8 442.92c-0.099 0.001-0.217 0.001-0.335 0.001-38.152 0-69.080-30.928-69.080-69.080 0-27.449 16.009-51.159 39.2-62.301l0.415-28.739c0-12.636 10.244-22.88 22.88-22.88h13.6c12.636 0 22.88 10.244 22.88 22.88v28.56c23.558 11.339 39.529 35.025 39.529 62.44 0 38.152-30.928 69.080-69.080 69.080-0.045 0-0.091 0-0.136 0z" />
<glyph unicode="&#xe905;" glyph-name="ek-006" d="M731.44 715.24c-12.217 110.616-105.165 195.883-218.028 195.883-112.679 0-205.508-84.989-217.88-194.361-85.35-16.699-149.112-90.384-149.252-178.987v-368.815c0.137-99.915 81.119-180.869 181.031-180.96h368.689c99.904 0.114 180.864 81.060 181 180.947v368.813c-0.106 87.381-62.033 160.267-144.388 177.278zM513.44 856.72c81.452-0.21 149.036-59.321 162.42-136.978l-325.1-0.982c13.531 78.679 81.178 137.811 162.664 137.96zM822.84 168.96c-0.091-69.991-56.839-126.697-126.838-126.72h-368.682c-69.949 0.091-126.629 56.771-126.72 126.711v368.809c0.091 69.949 56.771 126.629 126.711 126.72h368.689c69.949-0.091 126.629-56.771 126.72-126.711zM511.68 423.16c-38.505-0.059-69.696-31.287-69.696-69.8 0-28.869 17.526-53.645 42.519-64.268l0.457-26.412c0-15.707 12.733-28.44 28.44-28.44s28.44 12.733 28.44 28.44v28c23.627 11.475 39.626 35.289 39.626 62.84 0 38.461-31.179 69.64-69.64 69.64-0.051 0-0.103 0-0.154 0z" />
<glyph unicode="&#xe906;" glyph-name="ek-007" d="M976 460.24c-2.447 8.611-6.931 15.982-12.911 21.831l-290.089 289.929c-45.68 45.68-116.56-25.2-70.88-70.88l201.88-201.88h-712.68c-27.526 0-49.84-22.314-49.84-49.84s22.314-49.84 49.84-49.84h718.8l-201.92-201.96c-45.68-45.68 25.2-116.56 70.88-70.88l284.92 284.88c9.020 8.31 14.651 20.181 14.651 33.367 0 5.477-0.972 10.728-2.752 15.588z" />
<glyph unicode="&#xe907;" glyph-name="ek-008" d="M499.16 915.24c-8.611-2.447-15.982-6.931-21.831-12.911l-289.969-289.929c-45.68-45.68 25.16-116.4 70.84-70.88l201.8 201.92v-712.72c0-27.526 22.314-49.84 49.84-49.84s49.84 22.314 49.84 49.84v718.8l201.92-201.92c45.68-45.68 116.56 25.2 70.88 70.88l-284.48 284.84c-8.31 9.017-20.178 14.645-33.361 14.645-5.554 0-10.875-0.999-15.792-2.827z" />
<glyph unicode="&#xe908;" glyph-name="ek-009" d="M929.84 487.36h-834.96c-27.614 0-50-22.386-50-50s22.386-50 50-50h834.96c27.614 0 50 22.386 50 50s-22.386 50-50 50zM929.84 248h-834.96c-27.614 0-50-22.386-50-50s22.386-50 50-50h834.96c27.614 0 50 22.386 50 50s-22.386 50-50 50zM94.88 627.080h834.96c27.614 0 50 22.386 50 50s-22.386 50-50 50h-834.96c-27.614 0-50-22.386-50-50s22.386-50 50-50z" />
<glyph unicode="&#xe909;" glyph-name="ek-010" d="M936.8 834.72h-846.2c-26.51 0-48-21.49-48-48v-698.72c0-26.51 21.49-48 48-48h846.2c26.51 0 48 21.49 48 48v698.64c0 0.024 0 0.052 0 0.080 0 26.51-21.49 48-48 48 0 0 0 0 0 0zM923.76 101.16h-780.64l401.44 432.84 186.6-155.080c5.019-4.19 11.539-6.734 18.653-6.734 8.153 0 15.526 3.342 20.823 8.73l89.364 91.084 63.68-40.72zM923.76 503.96l-52.6 33.64c-4.468 2.917-9.938 4.652-15.813 4.652-8.113 0-15.453-3.309-20.745-8.65l-87.042-88.682-187.2 155.64c-5.014 4.175-11.522 6.709-18.623 6.709-8.433 0-16.031-3.575-21.361-9.292l-416.736-449.497v625.080h820zM741.4 611.4c30.42 0 55.080 24.66 55.080 55.080s-24.66 55.080-55.080 55.080c-30.42 0-55.080-24.66-55.080-55.080 0.045-30.401 24.678-55.034 55.076-55.080z" />
<glyph unicode="&#xe90a;" glyph-name="ek-011" d="M936.28 681.92h-96l-3.68 71.36c-1.123 20.791-18.256 37.224-39.226 37.224-0.483 0-0.964-0.009-1.443-0.026l-710.651-27.998c-21.022-0.849-37.743-18.097-37.743-39.25 0-0.784 0.023-1.564 0.068-2.337l2.195-39.053v-538.56c0 0 0 0 0 0 0-21.637 17.495-39.189 39.111-39.28h847.369c21.694 0 39.28 17.586 39.28 39.28v499.32c0 0.012 0 0.026 0 0.040 0 21.694-17.586 39.28-39.28 39.28 0 0 0 0 0 0zM777.92 729.92l2.48-48h-669.76l-1.52 21.72zM915.76 164h-806.32v458.080h806.32zM876.64 395.080c0-22.82-18.5-41.32-41.32-41.32s-41.32 18.5-41.32 41.32c0 22.82 18.5 41.32 41.32 41.32s41.32-18.5 41.32-41.32z" />
<glyph unicode="&#xe90b;" glyph-name="ek-012" d="M601.8 402.24q-54.72-50.92-106.72-104.64l-34.8 34.8c-22.32 22.32-57-12.32-34.64-34.64l51.24-51.24c11.4-11.4 26-8 34.6 1.2 3.607 1.381 6.669 3.467 9.148 6.107q56.332 58.493 115.812 113.813c23.12 21.48-11.56 56.080-34.64 34.6zM811.12 732.72h-89.6c-30.52 104-93.96 181-205.28 181.48s-175.36-77.52-206.68-181.48h-93.88c-46.4 0-76.28-29.56-76.28-76v-595.44c0-46.4 29.88-77.16 76.28-77.16h595.44c46.4 0 76.88 30.8 76.88 77.16v595.44c0 46.4-30.48 76-76.88 76zM516.24 851.36c73.32 0 116.48-35.48 140.24-118.64h-281.8c24.4 83.28 68.16 118.68 141.56 118.64zM825.6 61.28c0-12-2.48-14.8-14.48-14.8h-595.44c-12 0-13.88 2.8-13.88 14.8v595.44c0 12 1.88 13.6 13.88 13.6h78.28c-5.36-20.8-8-54.84-8.6-82.16-0.64-40.44 62.2-42.48 62.84-2.040 0.4 26.040 3.16 63.4 9.080 84.2h316c5.64-20.8 8-56 8.32-82.16 0.28-40.4 63.080-42.56 62.84-2.040 0 27.4-2.72 63.4-8 84.2h74.48c12 0 14.48-1.6 14.48-13.6z" />
<glyph unicode="&#xe90c;" glyph-name="ek-013" d="M976.6 708.8c-0.2 13.792-11.328 24.92-25.101 25.12h-284.859c-13.36 66.88-81.32 60-137.72 60-57.080 0-122.84 5.76-137.28-60h-319.64c-13.792-0.2-24.92-11.328-25.12-25.101v-579.699c0.2-13.792 11.328-24.92 25.101-25.12h879.499c0.19-0.006 0.414-0.009 0.638-0.009 6.368 0 12.136 2.57 16.323 6.73l0.839 0.799 0.48 0.48c4.207 4.194 6.81 9.994 6.81 16.403 0 0.238-0.004 0.475-0.011 0.712zM926.4 683.68v-249.64h-349.6v54.88c-0.2 13.792-11.328 24.92-25.101 25.12h-60.019c-13.792-0.2-24.92-11.328-25.12-25.101v-54.859h-369.48v249.6zM516.84 464h9.76v-89.72h-9.76zM97.080 384h369.56v-34.88c0.2-13.792 11.328-24.92 25.101-25.12h60.019c0.19-0.006 0.414-0.009 0.638-0.009 6.368 0 12.136 2.57 16.323 6.73l0.879 0.799 0.44 0.48c4.208 4.194 6.811 9.995 6.811 16.404 0 0.252-0.004 0.502-0.012 0.752l0.001 34.844h349.56v-229.64h-829.32zM529.080 749.4c13.080 0 69.28 2 84.88-15.36h-168.64c17.040 17.52 68.84 15.2 83.84 15.2z" />
<glyph unicode="&#xe90d;" glyph-name="ek-014" d="M662.6 680h-346.84c-30.56 0-30.64-47.52 0-47.52h346.84c30.56 0.080 30.64 47.52 0 47.52zM662.6 589.8h-346.84c-30.56 0-30.64-47.52 0-47.52h346.84c30.56 0 30.64 47.52 0 47.52zM315.76 499.32c-30.56 0-30.64-47.52 0-47.52h270.8c30.56 0 30.64 47.52 0 47.52zM885.36 146.56l-61.36 60.4c-3.619 3.618-8.618 5.856-14.14 5.856s-10.521-2.238-14.14-5.856l-2.48-2.44c-3.763-3.641-6.1-8.738-6.1-14.38s2.336-10.739 6.094-14.375l25.525-25.085h-161.2c-11.134 0-20.16-9.026-20.16-20.16s9.026-20.16 20.16-20.16h157.96l-21.64-21.64c-4.259-4.259-6.893-10.142-6.893-16.64 0-12.997 10.536-23.533 23.533-23.533 6.498 0 12.381 2.634 16.64 6.893l57.44 57.44c4.143 4.189 6.702 9.951 6.702 16.311 0 0.594-0.022 1.184-0.066 1.767 0.039 0.36 0.058 0.87 0.058 1.385 0 5.56-2.269 10.591-5.932 14.216zM664 55.28h-460v785.52h579.76v-510.76c0-45.84 71.28-45.92 71.28 0v532c0.003 0.179 0.005 0.39 0.005 0.601 0 7.051-2.139 13.602-5.802 19.040-1.963 15.878-13.243 30.278-33.923 30.278h-646.84c-0.253 0.007-0.551 0.011-0.85 0.011-9.030 0-17.21-3.64-23.152-9.533-0.438-0.358-0.798-0.758-1.198-1.118l-0.64-0.72c-5.988-5.956-9.694-14.202-9.694-23.313 0-0.34 0.005-0.679 0.015-1.016l-0.001-848.711c0.022-3.496 0.517-6.867 1.424-10.065 0.696-16.895 11.936-33.495 34.216-33.495h495.4c46.040 0 46.12 71.28 0 71.28z" />
<glyph unicode="&#xe90e;" glyph-name="ek-015" d="M662.76 55.28h-460v785.52h579.56v-510.76c0-45.84 71.28-45.92 71.28 0v532c0.007 0.266 0.012 0.579 0.012 0.893 0 6.978-2.095 13.467-5.69 18.872-1.962 15.875-13.242 30.275-33.922 30.275h-646.96c-0.253 0.007-0.551 0.011-0.85 0.011-9.030 0-17.21-3.64-23.152-9.533-0.438-0.358-0.798-0.758-1.198-1.118l-0.64-0.72c-5.988-5.956-9.694-14.202-9.694-23.313 0-0.34 0.005-0.679 0.015-1.016l-0.001-848.831c0.022-3.496 0.517-6.867 1.424-10.065 0.696-16.895 11.936-33.495 34.216-33.495h495.6c45.84 0 45.92 71.28 0 71.28zM851.64 226.72q-53.080-49.4-103.64-101.48l-33.72 33.72c-21.64 21.64-55.24-12-33.6-33.6l49.68-49.68c11.080-11.080 25.2-7.68 33.56 1.16 3.511 1.331 6.494 3.349 8.909 5.909q54.651 56.731 112.291 110.331c22.56 20.92-11.12 54.44-33.48 33.64zM661.16 680h-346.84c-30.56 0-30.64-47.52 0-47.52h346.84c30.6 0.080 30.64 47.52 0 47.52zM661.16 589.8h-346.84c-30.56 0-30.64-47.52 0-47.52h346.84c30.6 0 30.64 47.52 0 47.52zM314.32 499.32c-30.56 0-30.64-47.52 0-47.52h270.8c30.56 0 30.64 47.52 0 47.52z" />
<glyph unicode="&#xe90f;" glyph-name="ek-016" d="M660.2 53.44h-448.2v765.2h564.68v-497.56c0-44.68 69.44-44.76 69.44 0v518.4c0.003 0.175 0.005 0.381 0.005 0.588 0 6.861-2.079 13.236-5.641 18.531-1.925 15.361-12.885 29.481-33.045 29.481h-630.12c-0.278 0.009-0.604 0.014-0.932 0.014-8.797 0-16.765-3.55-22.55-9.295-0.398-0.358-0.758-0.718-1.158-1.118l-0.64-0.68c-5.816-5.795-9.415-13.812-9.415-22.669 0-0.341 0.005-0.681 0.016-1.020l-0.001-826.87c0.019-3.409 0.499-6.698 1.383-9.818 0.697-16.462 11.937-32.622 33.337-32.622h482.84c44.68 0 44.76 69.44 0 69.44zM658.68 662.040h-337.88c-29.8 0-29.84-46.28 0-46.28h337.88c29.76 0 29.84 46.28 0 46.28zM658.68 574.12h-337.88c-29.8 0-29.84-46.28 0-46.28h337.88c29.76 0.16 29.84 46.28 0 46.28zM320.8 486c-29.8 0-29.84-46.28 0-46.28h264c29.8 0 29.84 46.28 0 46.28zM874.6 111.44c-13.12 12.8-26.080 25.88-39.080 38.92 12.68 12.28 25.32 24.64 38.12 36.68 5.295 4.968 8.593 12.010 8.593 19.822 0 7.154-2.766 13.663-7.288 18.514l-0.185-0.016c-5.018 5.334-12.122 8.655-20.002 8.655-7.242 0-13.829-2.806-18.734-7.39-13.024-12.266-25.904-24.826-38.824-37.346-11.16 11.52-22.36 23-33.36 34.68-4.968 5.295-12.010 8.593-19.822 8.593-7.154 0-13.663-2.766-18.514-7.288l0.016 0.015v-0.2c-5.334-5.018-8.655-12.122-8.655-20.002 0-7.242 2.806-13.829 7.39-18.734 11.186-11.984 22.666-23.624 34.066-35.424-12-12-24.4-24.2-36.36-36.48-4.775-4.931-7.719-11.662-7.719-19.079 0-7.716 3.185-14.689 8.312-19.674l0.006-0.206c4.878-4.712 11.53-7.615 18.859-7.615 7.648 0 14.558 3.161 19.494 8.249 11.727 12.007 23.687 24.007 35.567 35.687 13.24-13.28 26.44-26.6 40-39.64 4.929-4.763 11.651-7.699 19.059-7.699 7.707 0 14.671 3.177 19.656 8.293l0.246 0.006c4.751 4.886 7.68 11.564 7.68 18.926 0 7.777-3.269 14.791-8.507 19.742z" />
<glyph unicode="&#xe910;" glyph-name="ek-017" d="M928.6 807.72l-249.040 65.8c-4.548 1.246-9.771 1.962-15.16 1.962-32.867 0-59.515-26.621-59.56-59.477v-756.404c0 0 0 0 0 0 0-32.832 26.547-59.463 59.347-59.599 5.475 0 10.765 0.73 15.794 2.097l248.58 65.903c25.71 6.97 44.312 30.091 44.32 57.559v624.601c-0.018 27.453-18.594 50.563-43.862 57.463zM917.4 125.4c0.001-0.038 0.002-0.082 0.002-0.127 0-1.855-1.262-3.414-2.974-3.867l-249.028-65.846c-0.313-0.088-0.673-0.139-1.044-0.139-0.939 0-1.802 0.323-2.484 0.865-0.944 0.732-1.552 1.877-1.552 3.163 0 0.011 0 0.021 0 0.032v756.518c0 2.209 1.791 4 4 4 0.162 0.023 0.35 0.037 0.54 0.037s0.378-0.013 0.561-0.039l248.979-65.958c1.74-0.459 3.002-2.019 3.002-3.873 0-0.044-0.001-0.089-0.002-0.133zM770.24 455c0-19.706-15.974-35.68-35.68-35.68s-35.68 15.974-35.68 35.68c0 19.706 15.974 35.68 35.68 35.68s35.68-15.974 35.68-35.68zM520 145.52v189.92c0 0.003 0 0.005 0 0.008 0 3.402-2.758 6.16-6.16 6.16-1.703 0-3.245-0.691-4.36-1.808l-43.080-43.12c-1.112-1.114-1.8-2.653-1.8-4.352 0-0.003 0-0.006 0-0.009v-146.76c0-31.591 25.609-57.2 57.2-57.2h57.92v55.64h-57.92c-0.027-0.002-0.059-0.002-0.091-0.002-0.88 0-1.606 0.661-1.708 1.514zM464.6 755.8v-178.24c0.001-2.109 0.857-4.018 2.24-5.4l40-40c1.386-1.405 3.311-2.276 5.44-2.276 4.219 0 7.64 3.421 7.64 7.64 0 0.013 0 0.025 0 0.038v218.238c0 0.95 0.77 1.72 1.72 1.72h57.92v55.48h-57.76c-31.591 0-57.2-25.609-57.2-57.2zM528.76 393.28l22.72 22.72c4.881 4.509 7.927 10.943 7.927 18.088 0 2.981-0.53 5.839-1.502 8.483-1.245 4.558-3.679 8.612-6.942 11.826l-22.203 22.203-48.76 48.64-86.4 86.36c-24.76 24.8-63.24-13.68-38.44-38.44l109.56-109.56h-386.76c-14.934 0-27.040-12.106-27.040-27.040s12.106-27.040 27.040-27.040h390.040l-109.52-109.52c-24.76-24.8 13.68-63.24 38.44-38.44l83.080 82.92z" />
<glyph unicode="&#xe911;" glyph-name="ek-018" d="M918.88 657.44h-546.44c-31.542-0.046-57.097-25.615-57.12-57.158v-301.122c0.023-31.545 25.578-57.114 57.116-57.16h546.444c31.542 0.046 57.097 25.615 57.12 57.158v301.122c-0.023 31.545-25.578 57.114-57.116 57.16zM886.88 613.8l-232-139.68c-2.641-1.619-5.839-2.578-9.26-2.578s-6.619 0.959-9.338 2.623l-231.922 139.635zM932.48 299.16c0-7.467-6.053-13.52-13.52-13.52h-546.52c-7.467 0-13.52 6.053-13.52 13.52v291.2l254.92-153.6c9.062-5.563 20.036-8.858 31.78-8.858s22.718 3.295 32.048 9.011l254.652 153.447zM250.52 523.28h-42.24c-10.77 0-19.5-8.73-19.5-19.5s8.73-19.5 19.5-19.5h42.24c10.77 0 19.5 8.73 19.5 19.5s-8.73 19.5-19.5 19.5zM250.52 465.88h-138.52c-10.77 0-19.5-8.73-19.5-19.5s8.73-19.5 19.5-19.5h138.52c10.77 0 19.5 8.73 19.5 19.5s-8.73 19.5-19.5 19.5zM250.52 408.56h-183.76c-10.77 0-19.5-8.73-19.5-19.5s8.73-19.5 19.5-19.5h183.76c10.77 0 19.5 8.73 19.5 19.5s-8.73 19.5-19.5 19.5z" />
<glyph unicode="&#xe912;" glyph-name="ek-019" d="M901.76 739.2h-777.76c-44.825-0.136-81.115-36.483-81.16-81.316v-428.564c0.045-44.837 36.335-81.184 81.147-81.32h777.613c44.893 0.046 81.274 36.427 81.32 81.316v428.564c-0.045 44.837-36.335 81.184-81.147 81.32zM856 677.080l-329.96-198.8c-3.759-2.303-8.31-3.667-13.18-3.667s-9.421 1.364-13.292 3.731l-329.728 198.736zM901.68 210.080h-777.68c-10.626 0-19.24 8.614-19.24 19.24v414.4l362.8-218.6c12.9-7.921 28.522-12.613 45.24-12.613s32.34 4.692 45.622 12.83l362.418 218.382v-414.4c0 0 0 0 0-0.001 0-10.57-8.523-19.149-19.071-19.239z" />
<glyph unicode="&#xe913;" glyph-name="ek-020" d="M480 115c7.186-7.777 17.437-12.63 28.822-12.63 4.755 0 9.313 0.847 13.53 2.398 7.171 2.028 13.542 5.901 18.601 11.065l251.047 250.847c39.52 39.52-21.8 100.84-61.32 61.32l-174.68-174.72v616.64c0 23.815-19.305 43.12-43.12 43.12s-43.12-19.305-43.12-43.12v-621.92l-174.76 174.72c-39.52 39.52-100.84-21.8-61.32-61.32zM914.28 194.32c-23.815 0-43.12-19.305-43.12-43.12v-84.96h-716.32v84.96c0 23.815-19.305 43.12-43.12 43.12s-43.12-19.305-43.12-43.12v-128c0-0.024 0-0.052 0-0.080 0-23.815 19.305-43.12 43.12-43.12 0 0 0 0 0 0h802.56c23.815 0 43.12 19.305 43.12 43.12v128c0 0.024 0 0.052 0 0.080 0 23.815-19.305 43.12-43.12 43.12 0 0 0 0 0 0z" />
<glyph unicode="&#xe914;" glyph-name="ek-021" d="M329.76 204.64c-50.229 10.936-87.292 55.020-87.292 107.76 0 0.562 0.004 1.124 0.013 1.685-0.001 66.675 0.359 133.435-0.001 200.195-0.2 24.64 3.56 48 16.48 69.16 0 0.28-0.36 1.040-0.6 1.68-53.6 0-107.28 0.48-160.88-0.24-21.040-0.28-36.68-11.72-46.92-30.080-2.72-4.92-4.68-10.28-6.96-15.44v-201.24c0.596-0.895 1.146-1.921 1.595-2.999 7.645-25.481 24.445-40.321 50.765-43.481 5.466-0.621 11.802-0.975 18.22-0.975 4.187 0 8.339 0.151 12.451 0.447 7.049 0.408 8.329-2.392 8.289-9.272q-0.44-73.64 0-147.24c0.202-31.097 25.346-56.255 56.419-56.48 29.901 0 59.781-0.2 89.661 0 30.154 1.146 54.257 25.5 54.999 55.649 0.001 20.791 0.001 41.551 0.001 62.271 0.28 5.040-0.8 7.36-6.24 8.6zM978.72 540.44c-10.72 31.56-29.32 44.92-62.72 44.92q-69.040 0-138.080 0c-0.973 0.181-2.092 0.284-3.235 0.284-2.48 0-4.846-0.486-7.009-1.369 10.704-17.291 16.967-38.264 16.967-60.701 0-0.315-0.001-0.629-0.004-0.943-0.4-68.232-1.36-136.552 0.24-204.792 1.28-54.12-36.36-104.36-91.72-114.28-5.040-0.92-6.12-2.76-6.040-7.52 0.28-20 0-40.24 0-60.36-0.001-0.131-0.002-0.285-0.002-0.44 0-31.547 25.573-57.12 57.12-57.12 0.043 0 0.086 0 0.128 0 28.353 0 56.673 0 85.033 0 34.56 0 59.2 24.68 59.24 59.28 0 48.48 0 96.92 0 145.4 0 6.16 1.24 8.76 8 8.28 8-0.6 16-0.24 23.76 0 0.064 0 0.141 0 0.217 0 17.206 0 32.737 7.176 43.762 18.698 8.021 8.022 11.541 18.382 15.461 28.542v201c-0.28 0.36-0.96 0.68-1.12 1.12zM741.32 332q0 103.32 0 206.6c0 44.24-29.52 73.64-74 73.64h-155.32c-52.72 0-105.44 0-158.16 0-41.32 0-71.64-30.4-71.64-71.44q0-105.6 0-211.2c0-0.070 0-0.153 0-0.237 0-34.873 25.826-63.714 59.395-68.441 7.81-0.888 16.438-1.37 25.179-1.37 5.075 0 10.113 0.163 15.107 0.483 6.959-0.035 9.479-1.315 9.439-9.755-0.44-57.6-0.24-115.2-0.24-172.8 0-43.16 29.6-72.6 73-72.6h96c42.76 0 72.48 29.6 72.48 72.2 0 57.92 0 116 0 173.72 0 6.72 1.080 9.76 8.72 9.16 9.68-0.76 19.48-0.36 29.24 0 41.28 0.68 70.8 30.68 70.8 72.040zM490.76 581.64c0 1.348 1.092 2.44 2.44 2.44h33.56c1.348 0 2.44-1.092 2.44-2.44v-21.64c0-1.348-1.092-2.44-2.44-2.44h-33.56c-1.348 0-2.44 1.092-2.44 2.44zM545.92 443.4l-29.2-37.8c-1.212-1.549-3.081-2.535-5.18-2.535s-3.968 0.986-5.169 2.521l-28.851 37.174c-0.848 1.094-1.359 2.486-1.359 3.998 0 0.439 0.043 0.869 0.126 1.284l19.113 98.518c0.619 3.031 3.264 5.28 6.434 5.28 0.002 0 0.004 0 0.006 0h17.44c3.123-0.004 5.735-2.191 6.392-5.116l21.488-97.964c0.080-0.383 0.126-0.824 0.126-1.276 0-1.534-0.53-2.944-1.416-4.058zM512 653.040c66.534 0.182 120.4 54.16 120.4 120.72 0 66.672-54.048 120.72-120.72 120.72-66.658 0-120.697-54.025-120.72-120.677 0.023-66.701 54.098-120.762 120.8-120.762 0.084 0 0.169 0 0.253 0zM787.48 620c0.19-0.001 0.415-0.002 0.64-0.002 55.649 0 100.762 45.113 100.762 100.762 0 55.424-44.749 100.397-100.088 100.76-56.355 0-101.355-44-101.435-99.080-0.12-57.4 43.96-102.44 100.12-102.44zM235.44 620c54.022 2.061 97.035 46.353 97.035 100.691 0 54.141-42.702 98.309-96.263 100.661-57.212 0.007-101.652-43.633-101.772-99.993-0.006-0.406-0.009-0.885-0.009-1.365 0-55.228 44.772-100 100-100 0.355 0 0.709 0.002 1.063 0.006z" />
<glyph unicode="&#xe915;" glyph-name="ek-022" d="M672.6 607h-159.44c-54.080 0-108 0-162.24 0-42.36 0-73.48-31.2-73.48-73.28q0-108.32 0-216.64c0-0.073 0-0.161 0-0.248 0-35.775 26.503-65.359 60.946-70.189 7.969-0.901 16.772-1.39 25.69-1.39 5.251 0 10.462 0.17 15.628 0.504 7.296-0.036 9.736-1.316 9.656-9.996-0.48-59.080-0.24-118.16-0.24-177.24 0-44.28 30.36-74.48 74.88-74.48h98.48c44 0 74.32 30.36 74.32 74.080 0 59.4 0 118.8 0 178.2 0 6.92 1.080 10 8.92 9.4 9.96-0.8 20-0.36 30 0 42.6 0.88 72.88 31.64 72.88 74q0 105.96 0 212c-0.080 45.12-30.36 75.28-76 75.28zM491.48 575.68c0 1.392 1.128 2.52 2.52 2.52h34.4c1.392 0 2.52-1.128 2.52-2.52v-22.24c0-1.392-1.128-2.52-2.52-2.52h-34.4c-1.392 0-2.52 1.128-2.52 2.52zM548 433.88l-29.92-38.8c-1.241-1.582-3.153-2.589-5.3-2.589s-4.059 1.007-5.289 2.574l-29.611 38.135c-0.876 1.124-1.405 2.556-1.405 4.112 0 0.456 0.045 0.901 0.132 1.331l19.593 101.077c0.622 3.121 3.338 5.44 6.597 5.44 0.001 0 0.002 0 0.003 0h17.88c3.199-0.002 5.876-2.24 6.551-5.235l22.049-100.485c0.096-0.425 0.151-0.914 0.151-1.415 0-1.57-0.539-3.015-1.441-4.159zM513.12 648.92c68.483 0 124 55.517 124 124s-55.517 124-124 124c-68.483 0-124-55.517-124-124s55.517-124 124-124zM953.84 912.72h-258.44c-4.966-0.067-8.973-4.074-9.040-9.034v-152.726c0.067-4.966 4.074-8.973 9.034-9.040h39.126l-1.48-62.64c0-7.28 10.4-12.64 15.4-6.4l55.56 69.040h149.84c4.966 0.067 8.973 4.074 9.040 9.034v152.726c-0.067 4.966-4.074 8.973-9.034 9.040zM944.84 760h-145.080c-0.11 0.005-0.239 0.009-0.369 0.009-2.699 0-5.086-1.336-6.534-3.384l-0.297-0.305-40.84-50.8 1.080 45.32c0 0 0 0.001 0 0.001 0 5.017-4.033 9.092-9.034 9.159h-39.366v134.68h240.4zM779.32 837h132.32c11.6 0 11.64 18.040 0 18.040h-132.32c-11.6 0.040-11.64-18.040 0-18.040zM737.64 837h17.4c11.6 0 11.64 18.040 0 18.040h-17.4c-11.6 0.040-11.6-18.040 0-18.040zM779.32 804.32h132.32c11.6 0 11.64 18.040 0 18.040h-132.32c-11.6 0-11.64-18.040 0-18.040zM737.64 804.32h17.4c11.6 0 11.64 18.040 0 18.040h-17.4c-11.6 0-11.6-18.040 0-18.040z" />
<glyph unicode="&#xe916;" glyph-name="ek-023" d="M676 612.36h-160.8c-54.56 0-109.080 0-163.64 0-42.72 0-74.12-31.48-74.12-73.92q0-109.24 0-218.48c0-0.090-0.001-0.197-0.001-0.304 0-36.049 26.686-65.866 61.381-70.772 7.979-0.896 16.79-1.381 25.715-1.381 5.441 0 10.84 0.181 16.191 0.536 7.274-0.039 9.794-1.359 9.714-10.079-0.48-59.6-0.24-119.16-0.24-178.76 0-44.64 30.64-75.12 75.52-75.12h99.32c44.24 0 74.96 30.64 74.96 74.72 0 60 0 120 0 179.72 0 6.96 1.12 10.080 9 9.48 10.040-0.8 20-0.36 30.24 0 42.96 0.88 73.52 32 73.52 74.64q0 106.88 0 213.76c-0.28 45.52-30.8 75.92-76.76 75.96zM493.32 580.76c0 1.414 1.146 2.56 2.56 2.56h34.72c1.397-0.023 2.52-1.16 2.52-2.56 0 0 0 0 0 0v-22.44c0 0 0 0 0 0 0-1.4-1.123-2.537-2.518-2.56h-34.722c-1.414 0-2.56 1.146-2.56 2.56zM550.36 437.76l-30.36-39.16c-1.248-1.613-3.184-2.641-5.36-2.641s-4.112 1.028-5.348 2.625l-29.852 38.456c-0.878 1.129-1.408 2.568-1.408 4.13 0 0.464 0.047 0.916 0.136 1.354l19.753 101.957c0.622 3.143 3.357 5.48 6.638 5.48 0.001 0 0.002 0 0.002 0h18.040c3.221-0.002 5.915-2.257 6.592-5.275l22.248-101.365c0.117-0.471 0.184-1.012 0.184-1.568 0-1.501-0.489-2.888-1.317-4.010zM515.080 654.6c68.923 0.091 124.76 55.985 124.76 124.92 0 68.991-55.929 124.92-124.92 124.92-68.977 0-124.897-55.906-124.92-124.878 0-69.016 55.946-124.962 124.96-124.962 0.042 0 0.084 0 0.127 0zM874.68 791.8h-32v54.88c0.013 0.218 0.020 0.474 0.020 0.731 0 7.379-5.981 13.36-13.36 13.36s-13.36-5.981-13.36-13.36c0-0.257 0.007-0.512 0.022-0.766l-0.002-68.205c0.023-7.347 5.973-13.297 13.318-13.32h45.442c7.367 0 13.34 5.973 13.34 13.34s-5.973 13.34-13.34 13.34zM829.24 901.84c-67.533 0-122.28-54.747-122.28-122.28s54.747-122.28 122.28-122.28c67.533 0 122.28 54.747 122.28 122.28-0.091 67.497-54.783 122.189-122.271 122.28zM829.24 683.92c-52.821 0-95.64 42.819-95.64 95.64s42.819 95.64 95.64 95.64c52.821 0 95.64-42.819 95.64-95.64-0.114-52.759-42.875-95.492-95.633-95.56z" />
<glyph unicode="&#xe917;" glyph-name="ek-024" d="M940.92 420l-22.52 25.88c-3.68 163.72-88 294.84-228 355.040v0.48c0 40-38.28 77.6-78.72 77.6h-60c0.013 0.325 0.020 0.707 0.020 1.091 0 16.436-13.324 29.76-29.76 29.76s-29.76-13.324-29.76-29.76c0-0.384 0.007-0.766 0.022-1.146l-68.202 0.055c-40 0-67.44-36-70.16-72-143.8-61.32-237.56-200-242.36-359.68l-26.64-25.56c-5.645-5.414-9.154-13.017-9.16-21.439v-68.321c0-16.436 13.324-29.76 29.76-29.76 2.058 0.008 4.060 0.226 5.992 0.634 0.328-0.034 24.128 4.686 74.048 9.846-0.338-1.169-0.58-2.533-0.677-3.938 7.597-178.782 143.997-328.782 328.717-328.782s321.12 150 328.72 328.72c-0.086 1.461-0.314 2.827-0.673 4.14 47.713-5.18 70.313-9.66 70.833-9.78 1.775-0.372 3.815-0.584 5.904-0.584 7.182 0 13.776 2.513 18.952 6.708 6.643 5.453 10.888 13.727 10.904 22.993v68.203c0 0.047 0 0.103 0 0.159 0 7.451-2.742 14.261-7.271 19.477zM799.080 308.8c-6.56-153.92-125-287.24-285.44-285.44s-278.8 128.64-285.64 285.36c-0.157 2.93-0.863 5.658-2.017 8.135 65.537 5.305 160.057 10.305 287.457 10.305 128.4 0 222.6-5.080 287.36-10.56-1.006-2.32-1.63-5.015-1.719-7.846zM888.72 367.12c-54.52 7.48-173.76 19.48-375.12 19.48-202.36 0-323.28-12-378.36-19.56v20.76l26.44 25.36c5.645 5.414 9.154 13.017 9.16 21.439 0 131.641 70.64 248.001 182.52 306.561v-80.36c-0.013-0.325-0.020-0.707-0.020-1.091 0-16.436 13.324-29.76 29.76-29.76s29.76 13.324 29.76 29.76c0 0.384-0.007 0.766-0.022 1.146l0.002 140.465c0 9 6.52 18.12 11.2 18.12h68v-59.44c-0.013-0.325-0.020-0.707-0.020-1.091 0-16.436 13.324-29.76 29.76-29.76s29.76 13.324 29.76 29.76c0 0.384-0.007 0.766-0.022 1.146l0.002 59.385h60c7.36 0 19.24-11.16 19.24-18.12v-140.52c-0.013-0.325-0.020-0.707-0.020-1.091 0-16.436 13.324-29.76 29.76-29.76s29.76 13.324 29.76 29.76c0 0.384-0.007 0.766-0.022 1.146l0.002 74.105c106.16-56.32 168.6-165.84 168.6-300.4 0.003-7.489 2.776-14.33 7.349-19.554l22.371-25.726zM508 110.52c-20.25 9.356-43.945 14.812-68.915 14.812-8.284 0-16.429-0.601-24.391-1.761-18.094-2.452-13.174-31.892 5.746-29.252 5.588 0.794 12.042 1.248 18.601 1.248 21.296 0 41.476-4.781 59.525-13.328 16.474-7.56 26.634 20.4 9.434 28.28zM460.8 262.28l-125.88 24.96c-18.72 3.72-26.68-24.96-8-28.68l125.88-24.96c18.8-3.68 26.76 25 8 28.68zM592.68 233.6l125.88 24.96c18.8 3.72 10.8 32.4-8 28.68l-125.88-24.96c-18.68-3.72-10.68-32.36 8-28.68z" />
<glyph unicode="&#xe918;" glyph-name="ek-025" d="M940.92 424l-22.52 25.88c-3.68 163.72-88 294.84-228 355.040v0.48c0 40-38.28 77.6-78.72 77.6h-60c0.013 0.325 0.020 0.707 0.020 1.091 0 16.436-13.324 29.76-29.76 29.76s-29.76-13.324-29.76-29.76c0-0.384 0.007-0.766 0.022-1.146l-68.202 0.055c-40 0-67.44-36-70.16-72-143.8-61.32-237.56-200-242.36-359.68l-26.64-25.56c-5.645-5.414-9.154-13.017-9.16-21.439v-68.321c0-16.436 13.324-29.76 29.76-29.76 2.057 0.008 4.060 0.226 5.992 0.634 0.328-0.034 24.128 4.686 74.048 9.846-0.338-1.169-0.58-2.533-0.677-3.938 7.597-178.782 143.997-328.782 328.717-328.782s321.12 150 328.72 328.72c-0.086 1.461-0.314 2.827-0.673 4.14 47.713-5.18 70.313-9.66 70.833-9.78 1.775-0.372 3.815-0.584 5.904-0.584 7.182 0 13.776 2.513 18.952 6.708 6.643 5.453 10.888 13.727 10.904 22.993v68.203c0 0.047 0 0.103 0 0.159 0 7.451-2.742 14.261-7.271 19.477zM799.080 312.8c-6.56-153.92-125-287.24-285.44-285.44s-278.8 128.64-285.64 285.36c-0.157 2.93-0.863 5.658-2.017 8.135 65.537 5.305 160.057 10.305 287.457 10.305 128.4 0 222.6-5.080 287.36-10.56-1.006-2.32-1.63-5.015-1.719-7.846zM888.72 371.12c-54.52 7.48-173.76 19.48-375.12 19.48-202.36 0-323.28-12-378.36-19.56v20.76l26.44 25.36c5.645 5.414 9.154 13.017 9.16 21.439 0 131.641 70.64 248.001 182.52 306.561v-80.36c-0.013-0.325-0.020-0.707-0.020-1.091 0-16.436 13.324-29.76 29.76-29.76s29.76 13.324 29.76 29.76c0 0.384-0.007 0.766-0.022 1.146l0.002 140.465c0 9 6.52 18.12 11.2 18.12h68v-59.44c0.604-15.96 13.688-28.669 29.74-28.669s29.136 12.709 29.738 28.614l0.002 59.495h60c7.36 0 19.24-11.16 19.24-18.12v-140.52c-0.013-0.325-0.020-0.707-0.020-1.091 0-16.436 13.324-29.76 29.76-29.76s29.76 13.324 29.76 29.76c0 0.384-0.007 0.766-0.022 1.146l0.002 74.105c106.16-56.32 168.6-165.84 168.6-300.4 0.003-7.489 2.776-14.33 7.349-19.554l22.371-25.726zM471.64 97.2c-10-16.4 15.72-31.36 25.68-15 2.782 4.958 8.006 8.254 14 8.254s11.218-3.296 13.958-8.174c10.042-16.36 35.802-1.44 25.722 14.92-8.136 13.695-22.853 22.73-39.68 22.73s-31.543-9.035-39.563-22.518zM452.88 291.24l-125.88-24.96c-18.76-3.72-10.8-32.4 8-28.68l125.88 24.96c18.68 3.72 10.72 32.4-8 28.68zM584.76 262.56l125.88-24.96c18.68-3.72 26.68 24.96 8 28.68l-125.88 24.96c-18.76 3.72-26.76-24.96-8-28.68z" />
<glyph unicode="&#xe919;" glyph-name="ek-026" d="M940.92 424l-22.52 25.88c-3.68 163.72-88 294.84-228 355.040v0.48c0 40-38.28 77.6-78.72 77.6h-60c0.013 0.325 0.020 0.707 0.020 1.091 0 16.436-13.324 29.76-29.76 29.76s-29.76-13.324-29.76-29.76c0-0.384 0.007-0.766 0.022-1.146l-68.202 0.055c-40 0-67.44-36-70.16-72-143.8-61.32-237.56-200-242.36-359.68l-26.64-25.56c-5.645-5.414-9.154-13.017-9.16-21.439v-68.321c0-16.436 13.324-29.76 29.76-29.76 2.058 0.008 4.060 0.226 5.992 0.634 0.328-0.034 24.128 4.686 74.048 9.846-0.338-1.169-0.58-2.533-0.677-3.938 7.597-178.782 143.997-328.782 328.717-328.782s321.12 150 328.72 328.72c-0.086 1.461-0.314 2.827-0.673 4.14 47.713-5.18 70.313-9.66 70.833-9.78 1.775-0.372 3.815-0.584 5.904-0.584 7.182 0 13.776 2.513 18.952 6.708 6.643 5.453 10.888 13.727 10.904 22.993v68.203c0 0.047 0 0.103 0 0.159 0 7.451-2.742 14.261-7.271 19.477zM799.080 312.8c-6.56-153.92-125-287.24-285.44-285.44s-278.8 128.64-285.64 285.36c-0.157 2.93-0.863 5.658-2.017 8.135 65.537 5.305 160.057 10.305 287.457 10.305 128.4 0 222.6-5.080 287.36-10.56-1.006-2.32-1.63-5.015-1.719-7.846zM888.72 371.12c-54.52 7.48-173.76 19.48-375.12 19.48-202.36 0-323.28-12-378.36-19.56v20.76l26.44 25.36c5.645 5.414 9.154 13.017 9.16 21.439 0 131.641 70.64 248.001 182.52 306.561v-80.36c-0.013-0.325-0.020-0.707-0.020-1.091 0-16.436 13.324-29.76 29.76-29.76s29.76 13.324 29.76 29.76c0 0.384-0.007 0.766-0.022 1.146l0.002 140.465c0 9 6.52 18.12 11.2 18.12h68v-59.44c-0.013-0.325-0.020-0.707-0.020-1.091 0-16.436 13.324-29.76 29.76-29.76s29.76 13.324 29.76 29.76c0 0.384-0.007 0.766-0.022 1.146l0.002 59.385h60c7.36 0 19.24-11.16 19.24-18.12v-140.52c-0.013-0.325-0.020-0.707-0.020-1.091 0-16.436 13.324-29.76 29.76-29.76s29.76 13.324 29.76 29.76c0 0.384-0.007 0.766-0.022 1.146l0.002 74.105c106.16-56.32 168.6-165.84 168.6-300.4 0.003-7.489 2.776-14.33 7.349-19.554l22.371-25.726zM428.44 144.6c-18.32 5.64-26.16-23.080-8-28.68 26.209-8.23 48.33-23.179 65.077-42.844 12.683-14.716 33.643 6.404 21.203 20.844-20.406 23.431-46.931 41.036-77.092 50.364zM452.88 291.24l-125.88-24.96c-18.76-3.72-10.8-32.4 8-28.68l125.88 24.96c18.68 3.72 10.72 32.4-8 28.68zM584.76 262.56l125.88-24.96c18.68-3.72 26.68 24.96 8 28.68l-125.88 24.96c-18.76 3.72-26.76-24.96-8-28.68z" />
<glyph unicode="&#xe91a;" glyph-name="ek-027" d="M940.92 424l-22.52 25.88c-3.68 163.72-88 294.84-228 355.040v0.48c0 40-38.28 77.6-78.72 77.6h-60c0.013 0.325 0.020 0.707 0.020 1.091 0 16.436-13.324 29.76-29.76 29.76s-29.76-13.324-29.76-29.76c0-0.384 0.007-0.766 0.022-1.146l-68.202 0.055c-40 0-67.44-36-70.16-72-143.8-61.32-237.56-200-242.36-359.68l-26.64-25.56c-5.645-5.414-9.154-13.017-9.16-21.439v-68.321c0-16.436 13.324-29.76 29.76-29.76 2.058 0.008 4.060 0.226 5.992 0.634 0.328-0.034 24.128 4.686 74.048 9.846-0.338-1.169-0.58-2.533-0.677-3.938 7.597-178.782 143.997-328.782 328.717-328.782s321.12 150 328.72 328.72c-0.086 1.461-0.314 2.827-0.673 4.14 47.713-5.18 70.313-9.66 70.833-9.78 1.775-0.372 3.815-0.584 5.904-0.584 7.182 0 13.776 2.513 18.952 6.708 6.643 5.453 10.888 13.727 10.904 22.993v68.203c0 0.047 0 0.103 0 0.159 0 7.451-2.742 14.261-7.271 19.477zM799.080 312.8c-6.56-153.92-125-287.24-285.44-285.44s-278.8 128.64-285.64 285.36c-0.157 2.93-0.863 5.658-2.017 8.135 65.537 5.305 160.057 10.305 287.457 10.305 128.4 0 222.6-5.080 287.36-10.56-1.006-2.32-1.63-5.015-1.719-7.846zM888.72 371.12c-54.52 7.48-173.76 19.48-375.12 19.48-202.36 0-323.28-12-378.36-19.56v20.76l26.44 25.36c5.645 5.414 9.154 13.017 9.16 21.439 0 131.641 70.64 248.001 182.52 306.561v-80.36c-0.013-0.325-0.020-0.707-0.020-1.091 0-16.436 13.324-29.76 29.76-29.76s29.76 13.324 29.76 29.76c0 0.384-0.007 0.766-0.022 1.146l0.002 140.465c0 9 6.52 18.12 11.2 18.12h68v-59.44c-0.013-0.325-0.020-0.707-0.020-1.091 0-16.436 13.324-29.76 29.76-29.76s29.76 13.324 29.76 29.76c0 0.384-0.007 0.766-0.022 1.146l0.002 59.385h60c7.36 0 19.24-11.16 19.24-18.12v-140.52c-0.013-0.325-0.020-0.707-0.020-1.091 0-16.436 13.324-29.76 29.76-29.76s29.76 13.324 29.76 29.76c0 0.384-0.007 0.766-0.022 1.146l0.002 74.105c106.16-56.32 168.6-165.84 168.6-300.4 0.003-7.489 2.776-14.33 7.349-19.554l22.371-25.726zM468.64 102.4c-22.957 2.314-43.785 9.752-61.869 21.146-15.411 9.774-34.371-13.146-18.211-23.386 21.36-14.074 46.848-23.715 74.289-26.999 19.831-2.201 24.831 27.119 5.791 29.239zM438.16 200.68c2.8-18.88 31.44-10.84 28.68 8-9.24 62.52-92.8 74.76-122.080 20-9.040-16.88 16.64-32 25.68-15 17.96 33.52 62.36 23.36 67.72-13zM590.040 200.68c5.36 36.36 49.76 46.52 67.72 13 9.040-16.88 34.72-1.88 25.68 15-29.24 54.64-112.84 42.48-122.080-20-2.76-18.8 25.92-26.92 28.68-8z" />
<glyph unicode="&#xe91b;" glyph-name="ek-028" d="M944.64 419.72l-22.72 26.12c-3.76 165.12-88.92 297.36-229.92 358.16v0.4c0 40.24-38.6 78.24-79.4 78.24h-60.6c0 16.569-13.431 30-30 30s-30-13.431-30-30h-68.72c-40.44 0-68-36.44-70.76-72.44-145-61.84-239.56-201.92-244.52-362.76l-26.84-25.8c-5.651-5.457-9.16-13.1-9.16-21.563 0-0.027 0-0.054 0-0.081v-68.796c0.023-16.559 13.441-29.977 29.998-30 2.073 0.007 4.090 0.225 6.035 0.634 0.327-0.034 24.327 4.726 74.687 9.926-0.336-1.168-0.578-2.532-0.676-3.936 7.716-180.544 145.436-331.824 331.596-331.824s324 151.28 331.56 331.56c-0.086 1.461-0.314 2.827-0.673 4.14 48.033-5.22 70.913-9.74 71.433-9.86 1.78-0.371 3.826-0.583 5.922-0.583 7.253 0 13.912 2.543 19.134 6.787 6.688 5.493 10.962 13.823 10.984 23.152v68.804c0 0.015 0 0.033 0 0.052 0 7.544-2.788 14.436-7.39 19.704zM801.56 307.72c-6.6-155.24-126.080-289.72-288-288s-281.2 129.84-288 288c-0.162 2.93-0.867 5.658-2.017 8.137 66.097 5.343 161.377 10.383 289.937 10.383 129.52 0 224.52-5.12 289.84-10.64-1.034-2.367-1.673-5.117-1.759-8.007zM892 366.36c-55 7.52-175.24 19.68-378.36 19.68-204 0-326.080-12.24-381.64-19.76v20.96l26.64 25.6c5.734 5.438 9.315 13.096 9.36 21.592 0 132.808 71.24 250.288 184 309.208v-80.96c0-16.569 13.431-30 30-30s30 13.431 30 30v141.72c0 9.080 6.56 18.28 11.28 18.28h68.72v-60c0-16.569 13.431-30 30-30s30 13.431 30 30v60h60.6c7.44 0 19.4-11.28 19.4-18.28v-141.72c0-16.569 13.431-30 30-30s30 13.431 30 30v74.76c107.080-56.8 170.040-167.28 170.040-303 0-0.003 0-0.008 0-0.012 0-7.544 2.788-14.436 7.39-19.703l22.57-25.925zM590.72 194.56c5.4 36.68 50.2 46.92 68.32 13.12 9.12-17.040 35.040-1.88 25.92 15.16-29.52 55.12-113.84 42.84-123.12-20.28-2.84-18.92 26.16-27.080 28.88-8zM437.52 194.56c2.8-19.040 31.72-10.96 28.92 8-9.32 63.080-93.6 75.4-123.12 20.28-9.12-17 16.76-32 25.92-15.16 18.080 33.8 62.76 23.52 68.28-13.12zM576 116.52c-22.12-46.92-106.2-40.36-135.24-6.72-12.64 14.64-33.8-6.68-21.2-21.2 41.52-48 152-51.32 182.36 12.76 8.080 17.36-17.92 32.6-25.92 15.16z" />
<glyph unicode="&#xe91c;" glyph-name="ek-029" d="M739.4 464c-2.92-1.44-5.52-2.88-8-4.32-17.4-9.64-35.4-19.68-217.8-19.68s-200.36 10-217.68 19.64c-2.56 1.44-5.2 2.88-8 4.32-2.284 0.985-4.944 1.557-7.737 1.557-11.046 0-20-8.954-20-20 0-7.306 3.917-13.696 9.765-17.187 2.412-1.251 4.572-2.411 6.652-3.571 24.64-13.72 44.2-24.76 237-24.76s212.36 10.88 237.12 24.68c2.080 1.16 4.2 2.32 6.56 3.52 5.94 3.541 9.857 9.932 9.857 17.237 0 11.046-8.954 20-20 20-2.793 0-5.453-0.573-7.867-1.607zM943.76 427.040l-22.68 26.080c-3.954 156.276-95.413 290.287-227.055 355.217l-2.385 2.663c0 40-38.52 78.12-79.28 78.12h-60.36c0 16.569-13.431 30-30 30s-30-13.431-30-30h-68.52c-40.36 0-68-36.36-70.6-72.32-144.88-61.76-239.2-201.56-244-362.12l-26.8-25.68c-5.686-5.457-9.223-13.114-9.24-21.597v-68.683c0.013-13.63 9.125-25.127 21.588-28.747 22.201-5.917 49.652-11.283 77.626-14.989 14.953-178.13 161.91-317.975 341.531-317.975 179.789 0 326.855 140.109 337.966 317.097 30.386 5.007 56.713 10.215 82.448 16.894 7.956 2.633 17.068 14.131 17.081 27.759v68.601c0 0.022 0 0.047 0 0.073 0 7.518-2.772 14.388-7.351 19.643zM513.6 36c-144.178 0.273-262.725 109.647-277.496 249.947 78.149-6.939 168.969-11.589 260.874-11.589 5.282 0 10.56 0.015 15.835 0.046 3.874-0.034 9.417-0.051 14.963-0.051 92.843 0 184.573 4.768 274.957 14.072-26.060-142.664-144.771-252.241-289.114-252.425zM891.24 362.72c-46.16-9.24-167.12-28.32-379.24-28.32s-333.16 19.080-379.24 28.32v32l26.56 25.28c5.686 5.457 9.223 13.114 9.24 21.597 0 132.563 71.12 249.843 183.76 308.643v-80.72c0-16.569 13.431-30 30-30s30 13.431 30 30v141.44c0 9.040 6.56 18.24 11.28 18.24h68.4v-60c0-16.569 13.431-30 30-30s30 13.431 30 30v60h60.44c7.44 0 19.4-11.24 19.4-18.24v-141.44c0-16.569 13.431-30 30-30s30 13.431 30 30v72c102.348-61.83 169.722-172.48 169.722-298.866 0-0.399-0.001-0.797-0.002-1.196 0 0.054 0 0.044 0 0.035 0-7.539 2.788-14.427 7.39-19.688l22.49-25.845z" />
<glyph unicode="&#xe91d;" glyph-name="ek-030" d="M711.76 508.52c-2.56-1.28-4.88-2.56-7.16-4-15.28-8.52-31.12-17.36-192.36-17.36s-177.080 8.84-192.24 17.56c-2.28 1.28-4.6 2.56-7.16 4-2.327 1.207-5.081 1.914-8 1.914-9.761 0-17.674-7.913-17.674-17.674 0-6.842 3.888-12.776 9.575-15.714 2.179-1.086 4.099-2.126 5.899-3.166 21.84-12 39.12-21.8 209.52-21.8s187.68 9.64 209.52 21.8c1.84 1.040 3.72 2.080 5.8 3.12 5.786 2.984 9.674 8.918 9.674 15.76 0 9.761-7.913 17.674-17.674 17.674-2.919 0-5.673-0.708-8.099-1.961zM892.36 476l-20 23.040c-3.499 138.099-84.322 256.522-200.652 313.9l-2.108 2.34c0 35.48-34.040 69.040-70.040 69.040h-53.48c0 14.613-11.847 26.46-26.46 26.46s-26.46-11.847-26.46-26.46h-60.6c-35.68 0-60-32-62.4-64-128-54.56-211.36-178.080-215.6-320l-23.68-22.72c-4.938-4.821-8-11.544-8-18.982 0-0.048 0-0.097 0-0.145v-60.713c0-0.003 0-0.006 0-0.009 0-12.046 8.044-22.214 19.053-25.424 1.147-0.327 7.067-1.927 18.107-4.287-1.633-12.417-2.565-26.775-2.565-41.351 0-60.218 15.907-116.721 43.75-165.535 47.655-86.354 146.815-147.234 236.095-163.354 3.45-8.17 11.396-13.8 20.657-13.8 0.008 0 0.016 0 0.025 0h113.519c12.349 0 22.36 10.011 22.36 22.36v32c0 12.349-10.011 22.36-22.36 22.36h-113.52c-7.281-0.086-13.7-3.702-17.635-9.213-71.245 14.973-154.005 65.013-193.645 136.853-22.973 39.904-36.524 87.749-36.524 138.759 0 11.219 0.656 22.285 1.93 33.162l1.394-1.561c9.685-157.412 139.716-281.408 298.708-281.408 159.133 0 289.254 124.216 298.692 280.977 26.849 4.399 50.112 9.005 72.851 14.911 7.026 2.338 15.069 12.505 15.069 24.551 0 0.003 0 0.006 0 0.009v60.72c0 0.053 0.001 0.116 0.001 0.179 0 6.65-2.455 12.726-6.507 17.372zM512.36 130.32c-127.509 0.156-232.376 96.888-245.389 220.971 69.076-6.138 149.348-10.249 230.58-10.249 4.688 0 9.373 0.014 14.054 0.041 3.417-0.030 8.315-0.045 13.217-0.045 82.049 0 163.114 4.214 242.991 12.436-22.907-126.203-127.893-223.178-255.558-223.315zM846.080 419.040c-40.8-8-147.68-25.040-335.16-25.040s-294.4 16.88-335.16 25.040v28.16l23.48 22.52c4.938 4.821 8 11.544 8 18.982 0 0.048 0 0.097 0 0.145 0 117.113 62.84 220.793 162.4 272.713v-71.44c0-14.613 11.847-26.46 26.46-26.46s26.46 11.847 26.46 26.46v125c0 8 5.8 16 9.96 16h60.6v-52.8c0-14.613 11.847-26.46 26.46-26.46s26.46 11.847 26.46 26.46v52.92h53.4c6.56 0 17.12-9.92 17.12-16v-125.12c0-14.613 11.847-26.46 26.46-26.46s26.46 11.847 26.46 26.46v63.68c90.431-54.631 149.961-152.397 149.961-264.068 0-0.328-0.001-0.655-0.002-0.983 0 0.047 0 0.042 0 0.037 0-6.671 2.47-12.764 6.546-17.416l19.974-22.85z" />
<glyph unicode="&#xe91e;" glyph-name="ek-031" d="M948.48 824.56h-873.92c-16.774-0.222-30.315-13.75-30.56-30.497v-516.543c0.244-16.757 13.763-30.276 30.497-30.52l132.343-0.28-5-212c-0.6-24.6 35.12-42.68 52-21.56l188 233.72h506.64c16.757 0.244 30.276 13.763 30.52 30.497v516.663c-0.244 16.757-13.763 30.276-30.497 30.52zM427.4 308c-0.29 0.011-0.63 0.017-0.972 0.017-9.193 0-17.339-4.481-22.373-11.378-0.335-0.399-0.655-0.639-0.935-0.959l-138.16-171.68 3.64 153.28c-0.222 16.766-13.754 30.298-30.499 30.52l-133.061 0.2v455.52h812.92v-455.52zM358.32 568.6h447.48c39.28 0 39.32 61 0 61h-447.48c-39.24 0-39.32-61 0-61zM276.24 629.6h-58.8c-39.28 0-39.32-61 0-61h58.8c39.28 0 39.32 61 0 61zM805.8 519.080h-447.48c-39.28 0-39.32-61 0-61h447.48c39.28 0 39.32 61 0 61zM276.24 519.080h-58.8c-39.28 0-39.32-61 0-61h58.8c39.28 0 39.32 61 0 61z" />
<glyph unicode="&#xe91f;" glyph-name="ek-032" d="M948.48 824.56h-873.92c-16.774-0.222-30.315-13.75-30.56-30.497v-516.543c0.244-16.757 13.763-30.276 30.497-30.52l132.343-0.28-5-212c-0.6-24.6 35.12-42.68 52-21.56l188 233.72h506.64c16.757 0.244 30.276 13.763 30.52 30.497v516.663c-0.244 16.757-13.763 30.276-30.497 30.52zM427.4 308c-0.29 0.011-0.63 0.017-0.972 0.017-9.193 0-17.339-4.481-22.373-11.378-0.335-0.399-0.655-0.639-0.935-0.959l-138.16-171.68 3.64 153.28c-0.222 16.766-13.754 30.298-30.499 30.52l-133.061 0.2v455.52h812.92v-455.52z" />
<glyph unicode="&#xe920;" glyph-name="ek-033" d="M42.8 537.44c0-0.11 0-0.241 0-0.371 0-208.962 169.398-378.36 378.36-378.36 93.772 0 179.577 34.113 245.681 90.606-0.121-0.875-0.001-1.435 0.399-1.835l258.4-258.4c5.429-4.692 12.556-7.551 20.351-7.551 17.231 0 31.2 13.969 31.2 31.2 0 7.795-2.858 14.922-7.584 20.391l-258.366 258.36c-0.4 0.4-0.96 0.52-1.4 0.92 56.052 65.613 90.16 151.441 90.16 245.235 0 209.095-169.505 378.6-378.6 378.6s-378.6-169.505-378.6-378.6c0-0.069 0-0.137 0-0.206zM737.92 537.44c0-174.699-141.621-316.32-316.32-316.32s-316.32 141.621-316.32 316.32c0 174.699 141.621 316.32 316.32 316.32 174.599-0.227 316.075-141.718 316.28-316.3zM311.24 776.96c-53.727-23.189-96.439-63.444-122.16-113.819-2.027-4.105-2.839-7.321-2.839-10.727 0-8.841 5.474-16.404 13.218-19.484 2.381-0.965 4.98-1.497 7.703-1.497 7.88 0 14.72 4.45 18.145 10.974 21.854 43.271 57.374 76.837 100.785 95.609 18.694 8.057 38.849 13.323 59.963 15.285 11.147 1.168 19.146 9.865 19.146 20.429 0 0.067 0 0.133-0.001 0.2v-0.010c-0.091 11.551-9.476 20.88-21.039 20.88-0.789 0-1.568-0.043-2.335-0.128-25.968-2.493-49.923-8.773-72.15-18.309z" />
<glyph unicode="&#xe921;" glyph-name="ek-034" d="M980.44 40.44l-224.72 224.72c8.415 10.913 16.89 23.3 24.668 36.157 35.382 58.913 55.712 127.849 55.712 201.534 0 216.496-175.504 392-392 392s-392-175.504-392-392c0-10.139 0.385-20.188 1.141-30.133 11.919-167.798 134.159-312.958 299.159-351.838 27.459-6.876 58.983-10.821 91.427-10.821 104.169 0 198.838 40.669 268.998 106.995l221.935-222.294c5.758-5.383 13.518-8.689 22.049-8.689 17.85 0 32.32 14.47 32.32 32.32 0 8.532-3.306 16.291-8.706 22.067zM694.6 291.52c-60.466-71.658-150.328-116.863-250.747-116.863-29.349 0-57.796 3.861-84.862 11.104-132.311 33.839-231.311 153.559-241.311 292.079-0.516 6.88-0.81 14.903-0.81 22.994 0 180.487 146.313 326.8 326.8 326.8s326.8-146.313 326.8-326.8c0-79.873-28.655-153.053-76.245-209.822zM205.52 101.56h-50.4v50.44c0 11.907-9.653 21.56-21.56 21.56s-21.56-9.653-21.56-21.56v-50.4h-50.36c-11.896 0-21.54-9.644-21.54-21.54s9.644-21.54 21.54-21.54h50.36v-50.52c0-11.896 9.644-21.54 21.54-21.54s21.54 9.644 21.54 21.54v50.4h50.4c11.896 0 21.54 9.644 21.54 21.54s-9.644 21.54-21.54 21.54z" />
<glyph unicode="&#xe922;" glyph-name="ek-035" d="M981.12 36l-229.12 229.32c8.585 11.131 17.231 23.766 25.167 36.88 35.963 60.025 56.622 130.231 56.622 205.263 0 220.914-179.086 400-400 400s-400-179.086-400-400c0-10.199 0.382-20.31 1.132-30.317 11.92-171.226 136.92-319.386 305.32-359.066 28.065-7.039 60.284-11.078 93.447-11.078 106.298 0 202.905 41.497 274.503 109.175l226.491-226.858c5.823-5.284 13.591-8.519 22.113-8.519 18.203 0 32.96 14.757 32.96 32.96 0 8.582-3.28 16.399-8.655 22.263zM689.4 292.24c-61.707-73.118-153.406-119.242-255.877-119.242-29.899 0-58.881 3.927-86.458 11.293-135.065 34.509-236.145 156.669-246.425 298.069-0.525 7.010-0.824 15.184-0.824 23.428 0 184.176 149.304 333.48 333.48 333.48s333.48-149.304 333.48-333.48c0-81.503-29.239-156.178-77.799-214.106zM210.12 96.48h-146.8c-12.15 0-22-9.85-22-22s9.85-22 22-22h146.8c12.15 0 22 9.85 22 22s-9.85 22-22 22z" />
<glyph unicode="&#xe923;" glyph-name="ek-036" d="M786.72 470.68c-16.003-0.108-29.129-12.278-30.749-27.866-14.518-122.899-117.97-217.217-243.451-217.217s-228.933 94.318-243.329 215.927c-1.654 16.995-14.9 29.273-31.013 29.273-17.143 0-31.040-13.897-31.040-31.040 0-1.183 0.066-2.35 0.195-3.498 16.989-144.901 132.763-258.249 277.474-271.372l1.194-138.807h-132.84c-17.143 0-31.040-13.897-31.040-31.040s13.897-31.040 31.040-31.040h327.76c17.143 0 31.040 13.897 31.040 31.040s-13.897 31.040-31.040 31.040h-132.92v139.72c141.827 17.15 253.040 128.69 269.542 269.197 0.241 2.391 0.299 3.49 0.299 4.603 0 17.165-13.915 31.080-31.080 31.080-0.014 0-0.029 0-0.043 0zM512 290.96c102.834 0.114 186.166 83.446 186.28 186.269v256.971c0 102.88-83.4 186.28-186.28 186.28s-186.28-83.4-186.28-186.28v-256.92c0.091-102.851 83.432-186.206 186.269-186.32zM388 734.16c0 68.583 55.597 124.18 124.18 124.18s124.18-55.597 124.18-124.18v-256.92c0-68.583-55.597-124.18-124.18-124.18s-124.18 55.597-124.18 124.18z" />
<glyph unicode="&#xe924;" glyph-name="ek-037" d="M864.2 304.92c-70.56 44.24-132 84-196.24 14.36-10.12-10.92-25.88-43.8-38.24-50-29.96-15.040-62.28 3.56-88.64 21.12-72.56 48.28-148 110.36-192.24 186.36-33.48 57.36 1.36 64.24 33.32 113.72 23.12 35.8 24.96 55 13.56 95.16-17.4 61.16-52 185.24-118.36 208.96-202.2 72.32-267.16-259-210.2-389.080 58.96-134.68 182.48-264.92 295.16-355.32 100.64-80.76 223.44-148.72 354.080-161 105.92-9.96 216.36 37.64 254.36 144 34.68 97-34.44 129.28-106.56 171.72zM915.24 161.6c-6.24-51.52-73.6-96.64-118.24-107.72-154.16-38.32-336.44 88-441.92 184.52-93.96 86.12-232.28 220.4-248.76 355.4-12.52 103.2 105.24 353.72 185.68 182.88 16.2-34.48 56-97.72 47.68-137.44-7.72-37.8-58.16-58.44-70.080-94.36-27.64-83.44 86.040-184.36 140.36-231.32 55.24-47.76 150.080-144.84 231.68-110.96 25.84 10.72 33.36 26.88 50.080 46.44 33.84 39.56 40.36 51.2 93.48 29.76 16.52-6.68 32.52-18.28 47.64-27.76 41.76-24.68 89-35.040 82.4-89.4z" />
<glyph unicode="&#xe925;" glyph-name="ek-038" d="M948.64 522.56c18.56 18.56 19 44.52 0.48 63.040l-311.2 311.2c-18.56 18.56-47.24 20.8-65.8 2.24l-498.84-498.8c-12-12-12.88-28-0.88-40 108.52-108.6 217.040-214 325.56-320.24h-117.32c-42.56 0-42.56-64 0-64h468c42.56 0 42.56 64 0 64h-293.2q132.64 127.68 265.24 260c2.16 2 227.96 222.56 227.96 222.56zM426.72 89.2l-288 288 204.6 204.52 288-288z" />
<glyph unicode="&#xe926;" glyph-name="ek-039" d="M713.68 315.32l224.4 224.4c18.24 18.24 18.72 44 0.48 62.080l-306.36 306.2c-18.24 18.24-46.48 20.48-64.76 2.2l-491-490.88c-11.8-11.8-12.68-32.8-0.84-44.64l330.2-330.2c5.219-5.219 12.429-8.447 20.393-8.447 0.227 0 0.454 0.003 0.68 0.008 0.446-0.001 1.166 0.199 1.646-0.001s-0.96 1.76-0.68 1.76c7.040 0 12.8 4.24 19.24 10.68zM342.28 597.92l283.4-283.4-201.36-201.36-283.4 283.4zM334.32 92.32l-104 36.96c-28 10-40-34.68-12.28-44.6l104-36.96c28-10 40 34.68 12.28 44.6zM316 22.8l-60.56-4c-12.781-0.13-23.129-10.366-23.439-23.091-0.001-12.029 10.599-24.029 23.119-23.149l60.56 4c12.644 0.305 22.815 10.476 23.119 23.091 0.001 12.029-10.599 24.029-23.119 23.149zM551 47.76l104 36.96c28 9.88 16 54.6-12.28 44.6l-104-36.96c-28-9.88-16-54.6 12.28-44.6z" />
<glyph unicode="&#xe927;" glyph-name="ek-040" d="M988 237.92c-2.36 16-16 24-30.44 28.84-12.668 4.277-27.257 6.746-42.423 6.746-11.928 0-23.499-1.527-34.528-4.396-60.489-14.59-76.409-13.35-132.809-19.15-11.080-1.16-13.72-1-13.56 10.52 0.64 44 0.32 88 0 132-0.087 0.605-0.137 1.305-0.137 2.016 0 5.345 2.81 10.033 7.034 12.668 71.183 46.557 86.263 150.437 26.943 211.277q-108 110.84-218.76 218.92c-22.083 21.699-52.387 35.094-85.82 35.094s-63.737-13.395-85.838-35.112c-72.502-71.303-143.982-143.983-215.982-215.583-59.040-58.8-44-177.72 24-214.6 5.52-3 6.4-6.36 6.6-15.44 0.36-18.080 0-32.48-0.24-48.84 0-12.52 0.48-15.4-7.48-15.4-12.24 0-40-17.080-134.92-33.44-5.901-1.046-10.325-6.136-10.325-12.259 0-0.12 0.002-0.24 0.005-0.359 0.88-37.662-0.24-75.382 0.52-113.062 0.32-14.84 0-29.68-0.52-44.52-0.2-8.72 2.24-9.84 10.16-8.52q45.36 7.72 90.88 14.2c68.8 9.84 60-2.16 123.080-26.84 60.44-23.64 80.24-44 157.56-68 55.040-17.16 107.32-12.96 160 8.52 139.32 56.8 226.8 90.68 365.28 148.8 8.932 3.974 16.591 8.385 23.729 13.477 10.951 7.523 20.151 17.803 17.991 32.443zM525.12 252.84v137.96c0 16.48-13.36 29.84-29.84 29.84h-61.6c-16.411-0.091-29.68-13.416-29.68-29.84 0 0 0 0 0 0v-113.28c-47.48 15.52-94.44 32.76-144 41.32-7.52 1.28-7.28 5.56-7.28 10.92q0 42.52 0 85c0 24.24-4.96 31.12-27.68 40-42.4 16.6-55.040 89.16-23.48 121.4 73 74.6 147 148 221.32 221.48 10.506 10.349 24.937 16.739 40.86 16.739s30.354-6.39 40.867-16.746q111.393-109.633 221.193-221.193c29.64-30.24 17.84-105.84-21.68-120.96-37.56-14.4-28.92-22.32-27.44-103.36 0.36-18.64-0.24-37.36-1.2-56-2.96-58.28 6-60.88-21.28-68.92-2.652-0.806-4.548-3.23-4.548-6.096 0-1.46 0.492-2.805 1.319-3.878 2.389-3.025 4.749-5.985 6.989-9.025 21.12-28.4 11.76-66-20.8-80-19.66-7.999-42.469-12.64-66.362-12.64-0.126 0-0.252 0-0.378 0-65.18-1.8-128.62 10.12-191.5 25.64-0.28 5.36 2.92 3.72 5.72 2.88 16-1.2 32-2.24 48-4 28.613-3.387 61.755-5.32 95.349-5.32 16.213 0 32.322 0.45 48.313 1.339 15.73 0.356 32.644 4.3 48.030 11.076 28.668 13.585 31.948 41.985 5.548 61.145-10.985 7.488-23.716 13.518-37.349 17.413z" />
<glyph unicode="&#xe928;" glyph-name="ek-041" d="M985.48 351.28l-0.76 0.84-0.48 0.44c-4.065 4.083-9.689 6.61-15.904 6.61-0.231 0-0.46-0.003-0.689-0.010l-205.966 0.001v196.84c0.005 0.184 0.008 0.4 0.008 0.617 0 6.175-2.494 11.767-6.529 15.824l-0.799 0.839-0.48 0.44c-4.031 3.897-9.53 6.299-15.589 6.299-0.327 0-0.653-0.007-0.977-0.021l-199.594 0.002v199.4c0.009 0.242 0.015 0.526 0.015 0.811 0 6.158-2.48 11.736-6.496 15.791l-0.758 0.838-0.48 0.44c-4.065 4.083-9.689 6.61-15.904 6.61-0.231 0-0.46-0.003-0.689-0.010l-456.446 0.001c-13.351-0.2-24.12-10.969-24.32-24.301v-220.019c0-0.52 0.28-1 0.32-1.52s-0.44-1.36-0.44-2.12v-220c0-0.28 0-0.56 0-0.84s0 0 0-0.2v-220c0.2-13.351 10.969-24.12 24.301-24.32h910.859c13.351 0.2 24.12 10.969 24.32 24.301v220.019c0.005 0.172 0.007 0.375 0.007 0.578 0 6.174-2.494 11.766-6.528 15.823zM489.080 583.76h-408v171.32h408zM713.080 360.2h-406.68v171.32h406.64zM81.080 531.48h175.48v-171.28h-175.44zM81.080 310.52h405.8v-171.28h-405.64zM537.56 310.52h405.8v-171.28h-405.64z" />
<glyph unicode="&#xe929;" glyph-name="ek-042" d="M930.72 630.84h-69.52c14.039 15.344 22.64 35.867 22.64 58.399 0 47.85-38.79 86.64-86.64 86.64s-86.64-38.79-86.64-86.64c0-22.532 8.601-43.055 22.699-58.465l-439.419 0.066c14.039 15.344 22.64 35.867 22.64 58.399 0 47.85-38.79 86.64-86.64 86.64s-86.64-38.79-86.64-86.64c0-22.532 8.601-43.055 22.699-58.465l-69.539 0.066c-29.407-0.045-53.234-23.873-53.28-53.276v-100.004c0-0.059 0-0.13 0-0.2 0-29.442 23.845-53.315 53.276-53.36h72.684l-91.56-280c-0.608-1.828-0.959-3.933-0.959-6.12 0-11.003 8.886-19.931 19.873-20h100.006c8.9 0.053 16.418 5.912 18.961 13.978l48.039 147.022h500l48-146.88c2.709-8.015 10.148-13.689 18.916-13.72h100.004c10.994 0.068 19.879 8.996 19.879 20 0 2.187-0.351 4.292-1 6.262l-91.52 279.859h72.64c0.095-0.001 0.208-0.001 0.321-0.001 29.358 0 53.178 23.709 53.359 53.024v100.017c0 0.012 0 0.026 0 0.040 0 29.442-23.845 53.314-53.276 53.36zM730.080 381.24h-433.080l14.040 42.76h404.96zM144.44 464l127.040 127.040h110.56l-127.040-127.040zM438.36 591.080h110.56l-127.040-127.080h-110.6zM715.8 591.080l-127.040-127.080h-110.6l127.040 127.080zM645.040 464l126.96 127.040h110.56l-126.96-127.040zM797.040 735.68c0.059 0 0.13 0 0.2 0 25.869 0 46.84-20.971 46.84-46.84s-20.971-46.84-46.84-46.84c-25.855 0-46.817 20.948-46.84 46.797 0.045 25.853 20.989 46.797 46.836 46.842zM229.68 735.68c0.059 0 0.13 0 0.2 0 25.869 0 46.84-20.971 46.84-46.84s-20.971-46.84-46.84-46.84c-25.855 0-46.817 20.948-46.84 46.797 0.045 25.853 20.989 46.797 46.836 46.842zM82.92 577.56c0 7.445 6.035 13.48 13.48 13.48h118.8l-125.2-125.24c-4.201 2.27-7.021 6.619-7.080 11.632zM182.040 158.040h-58.040l86.92 265.96h58.24zM276.48 318.64l7.52 22.76h459.12l7.44-22.76zM903.2 158.040h-58.16l-87.12 265.96h58.080zM944 477.44c0-7.445-6.035-13.48-13.48-13.48h-118.52l125.2 125.24c4.088-2.327 6.8-6.654 6.8-11.615 0-0.009 0-0.017 0-0.026z" />
<glyph unicode="&#xe92a;" glyph-name="ek-043" d="M983.72 851.44c-0.154 5.779-4.875 10.405-10.676 10.405-0.114 0-0.227-0.002-0.34-0.005l-45.023-1.28c-5.779-0.154-10.405-4.875-10.405-10.676 0-0.114 0.002-0.227 0.005-0.34l2.44-88.543c-2.6-2.8-11.28-10.24-36-19.4l-218.72-77.6-567.56-186.76c-30.951-10.38-52.856-39.118-52.856-72.972 0-21.209 8.597-40.41 22.496-54.308l109.28-109.28c4.96-4.96 10.16-9.64 15.36-14.24-1.923-9.135-3.042-19.646-3.080-30.411 0.621-87.922 72.016-158.934 159.996-158.934 72.659 0 134.005 48.432 153.518 114.773 107.297 29.829 191.849 107.022 230.147 207.097l2.778 7.594 139.64 47.44c26.36 43.040 28.28 76.2 6.16 98.16l-65.8 67.84 5.44 14.28c2.824 7.265 4.46 15.673 4.46 24.464 0 10.573-2.367 20.592-6.6 29.558l88.179 30.698c56.28 20.84 83.12 49.32 79.76 84.6zM441.32 184.44c-6.229-45.766-45.058-80.661-92.038-80.661-51.274 0-92.84 41.566-92.84 92.84s41.566 92.84 92.84 92.84c51.274 0 92.84-41.566 92.84-92.84 0-0.232-0.001-0.463-0.003-0.695-0.032-4.058-0.321-8.051-0.854-11.968zM758.32 617.88l-82.32-217.48 0.76-0.32-5.8-15.52c-28.371-75.921-88.082-134.388-162.965-160.471-15.202 75.244-80.554 132.112-159.189 132.112-52.7 0-99.435-25.543-128.498-64.924l-106.268 105.643c-1.885 1.876-3.051 4.473-3.051 7.343 0 4.538 2.917 8.394 6.979 9.796l635.913 208.302c0.345 0.134 0.744 0.212 1.161 0.212 0.988 0 1.874-0.437 2.476-1.128 0.658-0.565 1.071-1.393 1.071-2.317 0-0.452-0.099-0.88-0.275-1.266zM828.68 470.52c-1.33-4.171-2.849-7.731-4.653-11.116l-53.107-14.164 27.24 56.8z" />
<glyph unicode="&#xe92b;" glyph-name="ek-044" d="M941.52 800c-15.12 10.6-37.96 24.36-66.080 23.12-14.563-1.219-27.958-5.104-40.073-11.167-64.033-29.018-118.403-70.716-161.513-122.169-4.538-5.378-6.949-11.479-6.949-18.143 0-8.868 4.269-16.739 10.864-21.67-0.849-2.82-1.389-6.009-1.409-9.321l0.44-74.61-38.080-28.48-98.72 58.44c-54.76 32.52-140.24 21.96-176-21.72l-300.8-368.68c-20.8-25.52-22.8-57.76-5.16-84.24 20-29.96 61.88-47.6 106-47.6 0.078 0 0.171 0 0.264 0 16.217 0 31.874 2.397 46.636 6.856l613.54 182.224c40.56 12 67.2 38.76 71.32 71.52 3.64 29.44-12 57.68-41.96 75.48l-156.64 93.080 30.68 22.96c7.721 5.762 12.666 14.873 12.666 25.139 0 2.274-0.243 4.491-0.703 6.627l0.037 28.394c22.36 0.92 43.080 8 57.64 13.16 52.52 18.72 118.48 42.040 162.48 93.44 7.56 8.72 17.8 22.48 19.56 40.64 1.84 17.080-3.56 42.72-38.040 66.72zM817.52 342.56c-4.238-2.951-9.167-5.294-14.461-6.76l-615.059-182.56c-28.92-8.6-54.4 0.28-63.6 7.12l298.6 365.92c10.28 12.6 52.76 19.52 78.12 4.44l81.48-48.4c-0.081-0.84-0.126-1.816-0.126-2.803 0-17.187 13.933-31.12 31.12-31.12 6.444 0 12.43 1.959 17.397 5.313l183.89-109.31c1.12-0.64 2.040-1.24 2.76-1.8zM896.52 717.72c-26.314-22.818-57.95-40.261-92.748-50.216-21.412-6.224-46.652-17.904-65.732-19.144-1.158 4.611-3.206 8.634-5.967 12.060 35.565 39.414 78.615 71.338 127.032 93.586 7.336 3.575 13.050 5.516 19.084 6.51 9.211 0.365 22.811-8.715 27.131-11.955 3.825-2.816 6.649-6.794 7.963-11.409-1.483-2.591-3.043-7.271-16.643-19.351z" />
<glyph unicode="&#xe92c;" glyph-name="ek-045" d="M972.64 728.88c-19.082 21.332-38.668 40.918-59.288 59.373-6.261 5.169-13.427 7.922-21.237 7.922-2.565 0-5.061-0.297-7.456-0.859-10.043-1.68-18.519-8.085-23.056-16.858-4.084-8.899-8.084-17.739-12.084-26.579-3.24-7.32-6.48-14.64-9.88-21.88-4.197-7.941-6.661-17.358-6.661-27.35 0-1.439 0.051-2.867 0.152-4.28l-32.731-32.37q-64.4-64.24-128.68-128.64c-1.687 0.721-3.65 1.14-5.711 1.14-4.484 0-8.505-1.984-11.234-5.121-3.738-3.657-7.23-7.479-10.499-11.49l-3.396-4.008-5.2 5.16c-5.16 5.080-10.28 10.2-15.48 15.2l-9.040 8.92c-6.96 6.88-13.92 13.76-21.2 20.28-2.617 2.602-6.225 4.21-10.208 4.21-4.198 0-7.979-1.786-10.624-4.641-4.409-4.009-8.689-8.009-12.929-12.329l-4.2-4.2c-25.28-24.96-51.4-50.76-76-77.28l-2.72-3.080c-25.884 13.568-56.546 21.529-89.067 21.529-95.283 0-174.605-68.34-191.623-158.678-89.384-30.771-152.59-113.419-152.59-210.83 0-0.092 0-0.184 0-0.276v-21.866h739.6v21.88c-0.129 80.005-34.968 151.846-90.259 201.291l0.219 0.709q26.8 26.52 53.2 53.4c3.2 3.24 6.24 6.72 9.12 10.24 2.17 2.289 3.505 5.389 3.505 8.8s-1.335 6.511-3.51 8.806c-2.546 3.217-5.071 6.086-7.737 8.817q-21.178 21.497-42.618 43.017c5.448 4.374 10.311 8.705 14.946 13.266 3.499 3.077 5.712 7.598 5.712 12.636 0 1.806-0.284 3.546-0.811 5.177q36.793 36.521 73.433 73.241l88.32 88.28 10.44-0.6c0.309-0.025 0.67-0.040 1.033-0.040 1.834 0 3.583 0.367 5.175 1.033l14.711 6.207c14.32 6 28.64 12 42.76 18.52 6.546 2.758 12.019 6.947 16.217 12.199 4.427 5.657 7.062 12.77 7.062 20.499 0 8.22-2.98 15.743-7.918 21.55zM661.48 491.080l5.64 6.64 14.24-14.36c-19.24-16.52-38.64-32.92-58.32-48.96-1.16-0.96-1.56-0.92-1.56-0.92-1.796 0.067-3.318 1.173-3.989 2.731-0.331 0.629-0.531 1.069 0.709 2.709 6.4 8.68 29.52 35.88 43.28 52.16zM734.68 143.72h-649.68c9.238 73.061 61.953 131.66 131.054 149.492l16.066 3.988 1.56 15.24c8.63 76.518 72.982 135.441 151.095 135.441 28.009 0 54.248-7.576 76.781-20.79 3.284-1.932 7.284-4.492 11.004-7.172 21.808-15.517 39.068-36.074 50.286-60.025l5.394-11.855 12-1.64c32.523-4.609 61.761-15.56 87.509-31.591 3.251-2.049 7.411-4.689 11.491-7.449 52.77-37.432 88.599-95.764 95.401-162.679zM716 396.32l-19-18.92q-16.56-16.52-33.16-32.96l-0.6-0.56c-4.44 3.080-8.92 6.040-13.56 8.88-26.359 16.44-57.179 28.703-90.13 34.937-15.831 26.204-34.713 47.846-57.35 64.732 1.92 3.051 4.44 5.651 6.92 8.371l1.72 1.76c19.080 20 38.64 39.28 58.16 58.72l11 10.72 11.6-11.64c9.32-9.28 18.6-18.56 27.64-28.28l-4.48-5.32c-8-9.32-15.76-18.68-23.24-28.4-4.413-5.97-7.063-13.475-7.063-21.6 0-10.997 4.856-20.86 12.54-27.563 5.421-4.71 12.331-7.748 19.93-8.31 14.593-1.567 24.953 5.393 34.033 13.193l25.2 21.48q19.84-19.56 39.84-39.24zM820.92 633.6q-60.68-60.64-121.48-121.6l-1.52 1.48-1.4 1.44 9.44 9.64c6.84 7 13.68 14.040 20.56 20.96l125.48 125.92 3.32-3.32zM864 666.68v0-0.24zM902.4 696l-5.4-2.48c-7.69 6.046-14.546 12.293-20.923 18.999 4.891 11.422 9.585 20.614 14.727 29.515l2.276 4.206c12-11.56 24.76-24.24 37.16-37.2-7.4-3.4-19.56-9.040-27.84-13.040z" />
<glyph unicode="&#xe92d;" glyph-name="ek-046" d="M871.8 916h-214.92c-0.269 0.013-0.585 0.020-0.902 0.020-11.245 0-20.36-9.115-20.36-20.36s9.115-20.36 20.36-20.36c0.317 0 0.633 0.007 0.947 0.022l51.076-0.002v-767.52c0-0.007 0-0.015 0-0.022 0-2.296 0.381-4.502 1.082-6.561l35.958-107.297c2.753-8.178 10.351-13.963 19.3-13.963s16.547 5.785 19.258 13.82l36.042 107.583c0.659 1.915 1.040 4.122 1.040 6.418 0 0.008 0 0.016 0 0.024v767.679h51.32c0.269-0.013 0.585-0.020 0.902-0.020 11.245 0 20.36 9.115 20.36 20.36s-9.115 20.36-20.36 20.36c-0.317 0-0.633-0.007-0.947-0.022zM779.8 110.92l-15.48-46.4-15.48 46.4v764.56h30.96zM569.76 80.4v342.32l17.12 8.56c6.873 3.333 11.527 10.257 11.527 18.269 0 11.178-9.062 20.24-20.24 20.24-3.048 0-5.939-0.674-8.532-1.881l0.125 16.812 17.12 8.56c6.873 3.333 11.527 10.257 11.527 18.269 0 11.178-9.062 20.24-20.24 20.24-3.048 0-5.939-0.674-8.532-1.881l0.125 16.812 17.12 8.56c6.966 3.304 11.697 10.279 11.697 18.36 0 11.188-9.070 20.257-20.257 20.257-3.107 0-6.051-0.7-8.683-1.95l0.123 16.732 17.12 8.56c6.873 3.333 11.527 10.257 11.527 18.269 0 11.178-9.062 20.24-20.24 20.24-3.048 0-5.939-0.674-8.532-1.881l0.125 16.812 17.12 8.56c6.977 3.305 11.716 10.289 11.716 18.38 0 11.198-9.078 20.276-20.276 20.276-3.107 0-6.051-0.699-8.683-1.948l0.123 72.413c0 0.007 0 0.015 0 0.022 0 2.296-0.381 4.502-1.082 6.561l-35.958 107.337c-2.753 8.178-10.351 13.963-19.3 13.963s-16.547-5.785-19.258-13.82l-36.042-107.623c-0.659-1.915-1.040-4.122-1.040-6.418 0-0.008 0-0.016 0-0.024v-66.319l-12.76-6.36c-6.715-3.421-11.234-10.283-11.234-18.2 0-11.242 9.112-20.356 20.353-20.36 1.378 0.194 2.607 0.488 3.789 0.883l-0.148-18.003-12.76-6.36c-6.715-3.421-11.234-10.283-11.234-18.2 0-11.242 9.112-20.356 20.353-20.36 1.378 0.194 2.607 0.488 3.789 0.883l-0.148-17.963-12.76-6.36c-6.715-3.421-11.234-10.283-11.234-18.2 0-11.242 9.112-20.356 20.353-20.36 1.378 0.194 2.607 0.488 3.789 0.883l-0.148-17.963-12.76-6.36c-6.715-3.421-11.234-10.283-11.234-18.2 0-11.242 9.112-20.356 20.353-20.36 1.378 0.194 2.607 0.488 3.789 0.883l-0.148-17.963-12.76-6.36c-6.715-3.421-11.234-10.283-11.234-18.2 0-11.242 9.112-20.356 20.353-20.36 1.378 0.194 2.607 0.488 3.789 0.883l-0.148-349.643-65.36-65.6c-3.663-3.681-5.927-8.756-5.927-14.36 0-11.233 9.097-20.341 20.325-20.36h214.922c11.23 0.019 20.327 9.127 20.327 20.36 0 5.604-2.264 10.679-5.928 14.361zM498.12 785.080l15.48 46.44 15.48-46.44v-27.24l-30.96-15.48zM498.12 697.080l30.96 15.48v-16.56l-30.96-15.48zM498.12 635.080l30.96 15.48v-16.52l-30.96-15.48zM498.12 573.080l30.96 15.48v-16.56l-30.96-15.48zM498.12 511.080l30.96 15.48v-16.48l-30.96-15.48zM498.12 449.080l30.96 15.48v-16.56l-30.96-15.48zM498.12 387.080l30.96 15.48v-310h-30.96zM455.28 20.88l30.96 30.96h54.72l30.96-30.96zM262.88 916c-70.692 0-128-57.308-128-128 0.18-11.084 9.207-20.001 20.317-20.001 0.071 0 0.142 0 0.213 0.001h51.309v-295.24l-15.72-8c-6.547-3.474-10.93-10.247-10.93-18.045 0-11.093 8.872-20.115 19.908-20.355 2.441 0.165 4.686 0.723 6.757 1.611l-0.134-17.211-15.72-8c-6.545-3.474-10.926-10.247-10.926-18.042 0-11.134 8.937-20.181 20.029-20.357 2.435 0.166 4.68 0.724 6.751 1.611l-0.134-17.211-15.72-8c-6.545-3.474-10.926-10.247-10.926-18.042 0-11.134 8.937-20.181 20.029-20.357 2.435 0.166 4.68 0.724 6.751 1.611l-0.134-17.211-15.72-8c-6.545-3.474-10.926-10.247-10.926-18.042 0-11.134 8.937-20.181 20.029-20.357 2.435 0.166 4.68 0.724 6.751 1.611l-0.134-17.211-15.72-8c-6.504-3.487-10.852-10.237-10.852-18.004 0-11.108 8.896-20.139 19.952-20.356 2.439 0.166 4.684 0.723 6.754 1.611l-0.134-72.051c0-0.007 0-0.015 0-0.022 0-2.296 0.381-4.502 1.082-6.561l35.958-107.297c2.753-8.178 10.351-13.963 19.3-13.963s16.547 5.785 19.258 13.82l36.042 107.583c0.659 1.915 1.040 4.122 1.040 6.418 0 0.008 0 0.016 0 0.024v65.519l14.12 7.080c6.655 3.44 11.125 10.271 11.125 18.145 0 3.394-0.83 6.593-2.299 9.407-3.323 6.434-10.038 10.832-17.779 10.832-1.925 0-3.787-0.272-5.549-0.78l0.141 17.475 14.12 7.080c6.707 3.423 11.22 10.281 11.22 18.193 0 3.312-0.791 6.439-2.194 9.203-3.355 6.328-10.016 10.644-17.684 10.644-1.945 0-3.826-0.278-5.604-0.796l0.141 17.475 14.12 7.080c6.769 3.403 11.333 10.293 11.333 18.249 0 3.368-0.818 6.546-2.266 9.344-3.323 6.433-10.038 10.831-17.779 10.831-1.925 0-3.787-0.272-5.549-0.78l0.141 17.475 14.12 7.080c6.707 3.423 11.22 10.281 11.22 18.193 0 3.312-0.791 6.439-2.194 9.203-3.355 6.328-10.016 10.644-17.684 10.644-1.945 0-3.826-0.278-5.604-0.796l0.141 17.475 14.12 7.080c6.769 3.403 11.333 10.293 11.333 18.249 0 3.368-0.818 6.546-2.266 9.344-3.323 6.433-10.038 10.831-17.779 10.831-1.925 0-3.787-0.272-5.549-0.78l0.141 301.835h51.28c0.012 0 0.026 0 0.040 0 11.222 0 20.32 9.098 20.32 20.32 0 0.014 0 0.028 0 0.042-0.204 70.465-57.32 127.524-127.789 127.638zM278.36 110.92l-15.48-46.4-15.48 46.4v26.56l30.96 15.48zM278.36 198.44l-30.96-15.48v16.52l30.96 15.48zM278.36 260.44l-30.96-15.48v16.48l30.96 15.48zM278.36 322.44l-30.96-15.48v16.48l30.96 15.48zM278.36 384.44l-30.96-15.48v16.52l30.96 15.48zM278.36 446.44l-30.96-15.48v16.48l30.96 15.48zM278.36 508.44l-30.96-15.48v275.040h30.96zM298.72 808.44h-120.32c7.839 31.571 32.134 55.985 63.037 63.87l0.603-26.59h40.68v27.12c31.928-7.73 56.635-32.278 64.472-63.519z" />
<glyph unicode="&#xe92e;" glyph-name="ek-047" d="M976 460l-0.8 12.84c0 16.2-47.16 222.92-100.2 222.92h-148.76c-10.583-0.051-20.591-2.465-29.538-6.74l0.418 24.54c0 11.289-9.151 20.44-20.44 20.44s-20.44-9.151-20.44-20.44v-378.88c0.049-11.714 3.004-22.727 8.181-32.369l-258.301 0.369c-5.337 9.712-11.894 18.004-19.606 25.054l195.526 0.066c32.288 0.023 58.457 26.192 58.48 58.478v211.482c-0.159 32.185-26.276 58.218-58.478 58.24h-462.802c-32.187-0.045-58.281-26.069-58.44-58.225v-211.575c0.036-20.553 10.691-38.61 26.77-48.981-26.354-17.503-43.676-47.116-43.676-80.775 0-53.019 42.981-96 96-96 42.512 0 78.57 27.633 91.192 65.918 13.358-37.678 49.116-64.754 91.197-64.754 52.735 0 95.539 42.522 95.996 95.149 0 1.723-0.4 3.283-0.48 4.963h284.8c0-1.68-0.48-3.24-0.48-4.92 0-53.075 43.025-96.1 96.1-96.1s96.1 43.025 96.1 96.1c-0.126 5.264-0.659 10.311-1.57 15.226 44.73 31.134 83.25 169.014 83.25 187.974zM101.68 597.76c0 9.698 7.862 17.56 17.56 17.56h462.8c9.698 0 17.56-7.862 17.56-17.56v-211.56c-0.023-9.689-7.871-17.537-17.558-17.56h-462.802c-9.689 0.023-17.537 7.871-17.56 17.558zM140.36 201.76c-30.486 0-55.2 24.714-55.2 55.2s24.714 55.2 55.2 55.2c30.486 0 55.2-24.714 55.2-55.2 0-0.036 0-0.078 0-0.12 0-30.502-24.704-55.235-55.196-55.28zM231.28 286.72c-5.437 16.345-14.618 30.209-26.564 41.091l53.204 0.069c-12.049-11.001-21.237-24.937-26.446-40.684zM322.2 201.76c-30.486 0-55.2 24.714-55.2 55.2s24.714 55.2 55.2 55.2c30.486 0 55.2-24.714 55.2-55.2 0-0.036 0-0.078 0-0.12 0-30.516-24.727-55.257-55.238-55.28zM930.2 497.4l-86.32-0.52c-5.084 1.336-8.848 5.695-9.277 10.996l-11.763 147.084h48c16.48-17.88 47.76-109.36 59.2-157.76zM798.2 201.76c-30.486 0-55.2 24.714-55.2 55.2s24.714 55.2 55.2 55.2c30.486 0 55.2-24.714 55.2-55.2 0-0.036 0-0.078 0-0.12 0-30.502-24.704-55.235-55.196-55.28zM798.2 353.080c-34.239-0.104-64.249-18.116-81.165-45.157-11.743 3.613-19.862 14.35-19.915 26.991v290.726c0.023 16.073 13.047 29.097 29.118 29.12h55.402l12-150.32c1.984-24.78 20.693-44.65 44.741-48.402l1.899-0.278 94.6 0.56c-2.2-24-37-116.84-57.96-144.72-17.536 25.040-46.232 41.225-78.711 41.28z" />
<glyph unicode="&#xe92f;" glyph-name="ek-048" d="M845.24 226.96c-17.645 30.404-46.889 52.422-81.525 60.124-2.627 2.375-4.84 4.179-7.361 5.463l-102.753 50.012c-7.614 4.89-16.908 7.796-26.88 7.796-17.133 0-32.262-8.576-41.331-21.669l-0.709-1.087-83.28 56v246.76c-0.261 13.001-3.347 25.221-8.666 36.154 2.706-0.514 5.066-1.274 7.586-1.274 53.019 0 96 42.981 96 96s-42.981 96-96 96c-53.019 0-96-42.981-96-96 0-3.080 0.64-6 0.92-9-21.582 10.912-46.948 17.599-73.804 18.315-6.276 0.005-146.996-0.555-178.516-47.995l-74.12-90.28c-0.556-0.67-1.096-1.414-1.588-2.192-4.059-6.459-6.436-14.206-6.436-22.507 0-23.505 19.055-42.56 42.56-42.56 11.326 0 21.618 4.424 29.243 11.638l42.1-28.379c-14.16-21.64-21.2-41.8-22.76-60.6 0 0-0.92-159.36-0.92-202.48-0.393-22.988-7.383-44.267-19.151-62.117l0.271 0.437-84.68-106.24c-25.24-27.080-17.4-52.36-3-65.76 7.125-7.098 16.953-11.486 27.806-11.486 3.379 0 6.658 0.425 9.787 1.225 10.812 3.124 20.212 9.223 27.351 17.356l111.136 112.065c18.664 21.022 31.219 47.851 34.658 77.459l9.542 54.301 27.72-33.84 53.56-181.52c1.36-34.68 23.6-47.080 42.72-47.080s42.64 13.16 42.64 50.16c0 0.006 0 0.012 0 0.019 0 0.995-0.073 1.974-0.213 2.93-30.147 211.531-38.267 223.891-40.427 226.971l-57.2 95.4c-7.52 12.8-10.64 20.52-7.52 30.92l80.68-54.4c0.52-4 145.2-97.52 145.2-97.52l-2.040-3c-16.88-24.72-10.68-44 3.28-64.64l27.8-45.52c-42.030-24.683-69.8-69.663-69.8-121.128 0-0.068 0-0.135 0-0.203 0-11.035 8.954-19.99 20-19.99h420c11.046 0 20 8.954 20 20-0.115 81.87-57.813 150.23-134.758 166.758zM500.32 817.16c30.928 0 56-25.072 56-56s-25.072-56-56-56c-30.928 0-56 25.072-56 56s25.072 56 56 56zM168 608c28 33.84 56.4 60.8 66.52 62.2h41.48c-17.68-23.32-42.6-56.48-67.52-89.4zM225.28 254.44c-2.446-21.368-10.985-40.384-23.813-55.683l-111.067-112.197c-5.32-5.72-8.28-6.2-9.16-5.52 0 0 0.36 3.040 6.68 9.92l86.040 108c16.761 24.161 26.91 54.019 27.279 86.228 0.001 19.692 0.001 63.172-0.399 104.892 6.080-7.12 12.48-14 19.12-20.6l21.080-25.72zM356.36 481.24c10.96 16.76 26.56 41.16 40.32 62.76l12.96-98.64zM461 401.24c-2.065 1.067-3.819 2.156-5.481 3.363l-26.119 199.917c-1.2 10.004-9.636 17.685-19.866 17.685-7.235 0-13.573-3.842-17.085-9.597l-80.93-126.528c-21.64-33.92-22.32-57.68-2.68-91.16l56.88-94.92c5.36-14.76 22.040-118.12 35.36-211.32 0-6.76-1.84-8.96-2.92-8.96-1.4 1.24-2 2.44-2.52 10.2-0.122 2.013-0.522 3.894-1.164 5.659l-54.476 188.421c-0.805 2.723-2.080 5.086-3.748 7.115l-85.692 104.605c-0.44 0.52-0.88 1-1.36 1.48-54.96 54.8-61.2 89.88-24.36 138.4 50.28 66.44 107.48 142.68 107.48 142.68 2.609 3.346 4.183 7.609 4.183 12.241 0 11.046-8.954 20-20 20-0.065 0-0.129 0-0.193-0.001h-81.71c-34.56 0-119.040-104-119.16-104.2-0.434-0.486-1.063-0.791-1.763-0.791-1.303 0-2.36 1.057-2.36 2.36 0 0.269 0.045 0.527 0.128 0.767l73.355 89.143c0.585 0.695 1.139 1.466 1.633 2.278 9.247 15.282 80.927 30.162 144.767 30.162 40.2 0 77.92-26 77.96-26 13.48-10.12 52-45.4 52-73.92zM593 268.8l25.4 37.16c1.804 2.618 4.785 4.312 8.162 4.312 2.076 0 4.002-0.64 5.592-1.734 0.683-0.477 1.508-0.969 2.367-1.403l53.92-26.255c-31.45-13.148-55.834-37.936-68.146-68.843l-23.094 36.443c-8.92 13-8.2 14.080-4.040 20.12zM563.32 80.48c7.891 37.718 36.262 67.212 72.708 76.609 8.861 2.214 14.957 9.107 15.805 17.547 4.533 42.72 40.303 75.646 83.763 75.646 0.212 0 0.425-0.001 0.637-0.002 34.002-0.065 63.343-20.095 76.908-48.999 3.213-7.167 9.499-11.852 16.942-12.515 56.333-8.676 100.289-52.294 109.375-107.651z" />
<glyph unicode="&#xe930;" glyph-name="ek-049" d="M933.24 877.76h-124.72c-26.633-0.023-48.217-21.607-48.24-48.238v-289.962h-17.56v69.28c0 26.642-21.598 48.24-48.24 48.24-8.461 0-16.414-2.179-23.328-6.005l-147.152-80.354v39.68c-0.017 26.63-21.608 48.211-48.24 48.211-7.639 0-14.864-1.776-21.283-4.937l-169.277-81.994v34c-0.093 26.572-21.655 48.076-48.24 48.076-9.957 0-19.209-3.017-26.893-8.186l-144.427-96.291c-13.020-8.721-21.477-23.372-21.48-40v-441.040c0.023-26.619 21.584-48.194 48.196-48.24h840.884c26.633 0.023 48.217 21.607 48.24 48.238v761.282c-0.023 26.633-21.607 48.217-48.238 48.24zM919.44 82h-813.32v420l117.040 78v-30.2c0-0.034 0-0.074 0-0.115 0-26.62 21.58-48.2 48.2-48.2 7.655 0 14.894 1.785 21.322 4.961l169.198 81.954v-40.88c0.023-26.625 21.612-48.2 48.24-48.2 8.461 0 16.414 2.179 23.328 6.005l147.272 80.314v-60c0.023-26.633 21.607-48.217 48.238-48.24h45.122c26.633 0.023 48.217 21.607 48.24 48.238v290.122h97.16zM244.6 423.040h-42.36c-22.546-0.023-40.817-18.294-40.84-40.838v-42.202c0.023-22.546 18.294-40.817 40.838-40.84h42.362c22.546 0.023 40.817 18.294 40.84 40.838v42.202c-0.023 22.546-18.294 40.817-40.838 40.84zM244 340.36l-41.24-0.36-0.52 41.84 41.76 0.36zM389.28 423.040h-42.36c-22.546-0.023-40.817-18.294-40.84-40.838v-42.202c0.023-22.546 18.294-40.817 40.838-40.84h42.362c22.546 0.023 40.817 18.294 40.84 40.838v42.202c-0.023 22.546-18.294 40.817-40.838 40.84zM388.76 340.36l-41.32-0.36-0.52 41.84 41.84 0.52zM533.96 423.040h-42.36c-22.546-0.023-40.817-18.294-40.84-40.838v-42.202c0.023-22.546 18.294-40.817 40.838-40.84h42.362c22.546 0.023 40.817 18.294 40.84 40.838v42.202c-0.023 22.546-18.294 40.817-40.838 40.84zM533.44 340.36l-41.44-0.36-0.52 41.84 41.84 0.52zM678.64 423.040h-42.36c-22.546-0.023-40.817-18.294-40.84-40.838v-42.202c0.023-22.546 18.294-40.817 40.838-40.84h42.362c22.546 0.023 40.817 18.294 40.84 40.838v42.202c-0.023 22.546-18.294 40.817-40.838 40.84zM678.12 340.36l-41.32-0.36-0.52 41.84 41.84 0.52z" />
<glyph unicode="&#xe931;" glyph-name="ek-050" d="M961.080 274.2l-176.6 104.8-210.24 493c-8 20-32 53.8-70.92 53.8h-1.56c-38.48 0-63.36-32.48-72-52.64l-213.4-509.16c-2.766-4.355-5.556-9.484-8.012-14.799l-139.588-85.721c-10.76-8-28-28.48-24-54.6 2.412-18.016 11.529-33.544 24.714-44.261l415.246-197.059c8.823-5.443 19.51-8.682 30.95-8.72 12.028 0.302 23.294 3.222 33.354 8.208l392.456 206.272c3.28 1.48 32.36 15.24 37.72 46.68 0.485 2.911 0.762 6.264 0.762 9.683 0 17.466-7.232 33.244-18.865 44.501zM246.040 327.080c2.095 5.694 4.534 10.588 7.431 15.163l215.289 513.757c0 0.28 12.88 26.48 33.080 26.48h0.52c21.040 0 32.64-26.6 32.88-27.2l235.12-550.56-3.64-12.6c-2.16-5.2-54.36-126.16-252.6-126.16h-5.4c-188.72 2.32-247.080 79.84-265 126.040-0.349 1.095-0.669 2.444-0.896 3.824-0.479 1.596-0.883 3.324-1.158 5.094-0.071 1.081-0.096 2.111-0.096 3.147 0 8.294 1.642 16.205 4.62 23.424zM937.56 227.080c-1.64-9.44-13.4-15.28-14.52-16l-393.76-206.88c-4.011-1.838-8.681-3.008-13.596-3.237-3.165 0.060-6.048 0.852-8.585 2.206l-413.378 195.95c-3.851 4.196-6.473 9.576-7.264 15.534-0.976 6.586 5.264 12.746 7.144 14.426l106.4 64.96c0.712-3.942 1.6-7.344 2.713-10.642-0.153-1.758 0.047-4.038 0.047-6.238v0.6c11.695-29.026 29.058-53.592 50.871-73.33 44.169-41.63 121.129-78.99 254.649-80.47 232-3.36 295.040 146.2 298.2 154.4l6.4 21.64 2.24 7.12v0.24l-2.56 6 120.8-71.4c2.724-3.344 4.373-7.657 4.373-12.356 0-0.918-0.063-1.822-0.185-2.707zM516.92 323.56c-0.521 0.040-1.128 0.063-1.74 0.063s-1.219-0.023-1.82-0.068l-76.8 0.005c-0.289-0.031-0.625-0.048-0.965-0.048-1.086 0-2.129 0.179-3.104 0.508-2.833 1.072-5.341 2.42-7.635 4.050-3.491 2.371-5.821 6.439-5.821 11.051 0 0.112 0.001 0.224 0.004 0.336 0 7.343 0 14.743 0 22.103 0 3.48 0 3.48 3.56 3.48h88c3.4 0 3.64 0.24 3.64 3.68 0 8 0 16.24 0 24.32 0.043 0.361 0.067 0.78 0.067 1.204 0 5.965-4.835 10.8-10.8 10.8-0.108 0-0.216-0.002-0.323-0.005h-123.984c-2.92 0-3.24-0.36-3.24-3.32 0-10.56 0-21.12 0-31.68 0-18.92 0.6-37.84 0.36-56.76-0.004-0.105-0.006-0.227-0.006-0.351 0-0.971 0.134-1.911 0.383-2.802 1.346-4.498 3.143-8.477 5.39-12.151 3.081-5.263 8.098-9.398 14.090-11.403 3.313-1.137 6.963-1.942 10.74-2.317l1.323-0.016c0.324 0.086 0.696 0.136 1.080 0.136s0.756-0.050 1.11-0.143l116.97 0.007c2.16 0 2.28 0 2.28 2.28s0 4.92 0 7.36c0 4.8 0 9.56 0 14.36 0.002 0.084 0.003 0.183 0.003 0.283 0 7.542-5.478 13.804-12.673 15.025zM525.92 445.88h0.56c1.040 0 1.32 0.28 1.32 1.32 0 4.48 0.4 8.96 0.36 13.44 0.203 1.871 0.318 4.042 0.318 6.24s-0.116 4.369-0.341 6.507c-0.557 6.073-5.847 11-12.289 11-0.284 0-0.567-0.010-0.846-0.029-46.442 0.002-92.962 0.002-139.442 0.002v-38.36h150.36zM605.64 294.44c4.507-4.925 10.964-8.002 18.139-8.002 0.12 0 0.239 0.001 0.359 0.003 13.302-0.24 26.662 0 39.982 0h1.88l-1.64 1.92q-41.92 48.48-84 96.96c-0.96 1.12-0.72 1.68 0 2.64q38.48 44 76.92 88c3.12 3.6 6.48 7.040 9.28 10.88h-5.52c-0.898-0.075-1.944-0.117-3-0.117s-2.102 0.042-3.136 0.126l-10.904-0.009c-7.32 0-14.6 0-21.92 0-10.053-0.368-18.975-4.921-25.125-11.959-2.955-3.121-5.595-6.401-8.355-9.641l-18.96-22.040-20.8-24.36c-3.843-3.543-6.52-8.3-7.42-13.659l-0.020-38.501c0.68-0.88 1.28-1.76 2-2.56z" />
<glyph unicode="&#xe932;" glyph-name="ek-051" d="M155.24 344c0-10.64 4-17.72 15.12-18.92s17.84-7.080 19.080-18.2c1.36-12 8.32-16.28 19.72-16.2q48.76 0.32 97.56 0c12.32 0 20 4.68 19.72 17.76-0.24 12-7.64 16.72-19.12 16.6-17.68 0-35.4 0.56-53.040-0.24-18.32-0.84-30.56 4.24-45.96 17.64-18.52 16-18.72 31.72-18.72 50.88 0 14.28 0.48 28.56 0 42.76-0.72 16-1.76 31.52 17.52 38.72 4.067 2.178 7.156 5.735 8.681 10.032 4.039 10.648 11.279 11.888 21.239 11.568 23.36-0.72 46.76 0 70.16-0.28 11.44 0 19 4 19.4 16.36 0.4 13-7 18.080-19.44 18.040q-48.76-0.28-97.56 0c-11.32 0-18.72-3.76-20-16-1.040-10.44-7.040-17.16-17.2-18.16-14.44-1.4-17.32-10.040-17.12-22.4 0.36-21.12 0-42.2 0-63.32 0.040-22.32 0.16-44.56-0.040-66.64zM726.92 347.68c-5.151-2.595-9.091-6.963-11.069-12.285-3.851-10.475-11.051-10.875-20.051-10.715-24 0.4-48 0-72 0-11.68 0-18.52-5.16-18.48-17.24s7.040-17.12 18.64-17.080q49.64 0 99.28 0c10.64 0 17.68 4 18.88 15.16s7.12 17.84 18.24 19.040c12 1.36 16.28 8.36 16 19.76-0.24 21.68 0 43.36 0 65.040s0 44.48 0 66.76c0 11.36-4 18.6-16 20-9.637 0.156-17.46 7.714-18.038 17.229-1.362 13.251-8.722 17.131-20.762 17.051q-48-0.4-96 0c-12 0-20.36-3.68-20.48-17s8-17.52 20-17.4q36.8 0.4 73.6 0c4.52 0 10.040 2.6 13.080-4.36 5.173-11.64 14.32-20.735 25.68-25.715 7.16-3.205 4.32-8.925 4.32-13.445 0.32-24-0.24-48 0.28-72 0.72-13.8 1.56-26.68-15.12-32.8zM981.32 660c0 19.32-22.12 36.8-39.8 41.16v0c-2.265 0.59-4.866 0.929-7.546 0.929-0.258 0-0.516-0.003-0.772-0.009-1.908 0.351-4.259 0.623-6.648 0.754l-770.194 0.007c-8.257-0.006-15.806-3.034-21.603-8.036l-81.317-69.684c-2.95-2.556-5.418-5.572-7.313-8.952-1.587-2.311-2.668-4.86-3.15-7.615-0.311-1.471-0.525-3.076-0.613-4.714-0.003-0.599-0.003-1.079-0.003-1.599-0.074-0.827-0.116-1.788-0.116-2.76s0.042-1.933 0.124-2.883c-0.009-5.877 0.431-12.637 0.431-19.877v-332c-0.001-0.107-0.001-0.234-0.001-0.36 0-26.653 21.561-48.27 48.193-48.36h742.409c4.284 0.041 8.411 0.637 12.337 1.719 8.383 1.281 20.183 6.361 36.263 16.641l83.76 61.32c9.527 7.037 15.638 18.225 15.64 30.84zM356 256.68h-252.68v307.32h252.68zM376.64 627.56h-227.16l17.080 14.68h225.44zM507.68 256.68h-91v307.32h91zM528.6 627.56h-64.24l15.32 14.68h64.32zM821.040 256.68h-252.64v307.32h252.68zM834.68 627.56h-218.36l15.32 14.68h220zM881.72 289.48v296l38.84 29.44v-296.96z" />
<glyph unicode="&#xe933;" glyph-name="ek-052" d="M910.88 916.56h-294.88c-0.029 0-0.063 0-0.097 0-20.288 0-38.647-8.258-51.9-21.596l-490.444-490.204c-13.334-13.334-21.581-31.754-21.581-52.1s8.247-38.766 21.581-52.1l295.040-295.080c13.355-13.286 31.769-21.498 52.1-21.498s38.745 8.213 52.103 21.501l490.197 490.237c13.275 13.335 21.51 31.697 21.6 51.983v295.177c-0.046 40.688-33.029 73.657-73.718 73.68zM922.24 548c-0.007-3.124-1.274-5.951-3.32-8l-490.2-490.36c-2.052-2.036-4.879-3.295-8-3.295s-5.948 1.258-8.001 3.295l-295.119 295.039c-2.036 2.052-3.295 4.879-3.295 8s1.258 5.948 3.295 8.001l490.399 490.199c2.051 2.042 4.877 3.308 7.998 3.32h295.042c6.252 0 11.32-5.068 11.32-11.32zM829.15 761.138c20.26-20.26 20.26-53.109 0-73.369s-53.109-20.26-73.369 0c-20.26 20.26-20.26 53.109 0 73.369s53.109 20.26 73.369 0zM652 616.56l-40.32-41.84c-16.568 10.415-36.713 16.593-58.301 16.593-2.526 0-5.032-0.085-7.515-0.251-23.594-1.15-44.861-11.668-60.057-27.931-11.395-11.845-18.997-27.317-20.896-44.507-0.483-4.334-0.741-8.959-0.741-13.645 0-15.876 2.961-31.061 8.36-45.032q2.43-6.867 8.070-21.627t8-21.76q2.24-7 4.4-16.64c0.771-2.819 1.214-6.056 1.214-9.396 0-2.449-0.238-4.842-0.693-7.158-1.094-4.287-3.328-8.184-6.366-11.291q-21.955-22.675-55.075 9.405c-8.668 9.149-15.406 20.22-19.501 32.501-3.897 9.584-7.231 20.286-9.626 31.338q-1.833 11.281-2.513 17.521l-69.2-18.6 0.36-6c0.914-6.634 2.215-12.503 3.936-18.189 1.824-6.571 4.424-14.611 7.784-23.171 4.399-11.272 9.412-20.941 15.303-29.987 6.872-10.9 14.533-20.914 23.003-30.175l-38.986-39.838 31.4-30.4 40.8 42.16q33.56-22.92 68-21.92t65.16 32.72c12.412 12.986 20.052 30.624 20.052 50.047 0 0.968-0.019 1.932-0.057 2.891-0.171 22.719-4.995 44.404-13.566 64.080 0.229-0.514 0.026-0.051-0.213 0.389-0.169 0.325-0.372 0.787-0.547 1.262q-7.709 18.251-10.869 26.091t-6.76 20c-1.728 4.738-2.728 10.207-2.728 15.909 0 1.228 0.046 2.446 0.137 3.651 0.503 4.525 2.511 8.665 5.52 11.849 4.643 5.313 11.445 8.657 19.028 8.657 0.959 0 1.906-0.054 2.838-0.158q11.886-1.35 25.686-14.59c7.5-7.546 13.778-16.316 18.505-25.983 3.864-7.128 7.321-14.867 10.152-22.902 1.662-5.755 2.622-9.515 3.262-12.355l61.72 21.28-2.56 10.44c-3.128 11.389-7.044 21.26-11.884 30.574-6.161 12.669-13.529 24.311-22.020 35.022l39.944 40.563z" />
<glyph unicode="&#xe934;" glyph-name="ek-053" d="M680.64 612.88h53.36c15.642 1.178 27.888 14.159 27.888 30s-12.245 28.822-27.787 29.994l-49.541 0.006c36.44 33.52 103.44 102.36 103.44 157.68 0.007 0.338 0.011 0.736 0.011 1.135 0 19.408-9.106 36.69-23.279 47.806-51.892 41.1-129.932-0.22-170.532-23.9-20 23.6-49.040 56.6-83.48 56.6s-62.12-32.92-82-56.96l-1.6-1.92-2.24 1.24c-48.24 26.6-128.88 71.4-168.88 24.16-8.76-10.36-18.6-28.68-15.8-57.2 5-50.68 49.6-114.040 89.8-146.080l2.92-2.36h-48.64c-0.656 0.051-1.421 0.080-2.192 0.080-16.613 0-30.080-13.467-30.080-30.080s13.467-30.080 30.080-30.080c0.771 0 1.536 0.029 2.293 0.086l60.579-0.006c-60.68-73.96-191.52-249.4-191.44-341.080 0-116 85.28-300 367.2-300 256.4 0 347.24 193.72 347.24 292.56 0.040 113.12-123.96 275.44-187.32 348.32zM300 827.44c-0.207 1.345-0.325 2.897-0.325 4.476 0 2.426 0.279 4.787 0.806 7.053 7.519 2.791 30.279-1.209 94.999-37.209 19.52-10.84 26.88-14.92 37.040-14.92 17.72 0 28 12.56 42.44 29.88 7.48 9.080 27.4 33.16 34.88 35.12 10.16-1.96 33-29.16 40.52-38.080 13.8-16.4 24-28.24 42.040-25.88 7.48 0.92 12 3.72 23.52 10.52 76.56 45.6 102.48 40.96 111.64 33.6 6-16.2-44-84.44-103.52-132-9.839-7.627-18.207-16.543-25.023-26.597l-178.417-0.403c-10.36 13.36-27.36 29-53.080 49.48-29.24 23.32-64.24 73.12-67.52 104.96zM520.72 32c-268 0-306.96 173.16-307 240 0 66 116.28 238.12 202.52 331.4 2.675 2.838 5.172 5.919 7.429 9.179l175.131 0.261c2.3-2.997 4.835-5.622 7.638-7.935 63.122-63.025 201.362-242.345 201.362-340.065-0.040-59.84-55.56-232.84-287.080-232.84zM547.36 344l-1.2 0.48-1.16 0.52q-15.12 6.36-21.48 9.24t-15.6 8c-5.032 2.544-9.275 5.93-12.71 10.019-2.212 2.87-3.53 6.428-3.57 10.292-0.020 0.351-0.031 0.75-0.031 1.152 0 6.677 3.122 12.625 7.987 16.464 6.011 3.985 13.335 6.338 21.209 6.338 0.998 0 1.987-0.038 2.966-0.112 9.458-0.197 18.558-2.028 26.99-5.218 7.115-2.266 13.614-4.977 19.829-8.163 2.731-1.651 5.451-3.331 7.491-4.691l24.52 48.36-7.72 4.72c-6.86 4.161-14.786 7.904-23.107 10.809-10.635 4.017-22.026 6.957-33.838 8.58l-0.816 47.412h-36.28v-48.2c-19.379-4.298-35.984-14.213-48.495-27.928-12.457-13.202-20.075-30.956-20.075-50.489 0-0.416 0.003-0.831 0.010-1.246 0.068-14.638 5.117-28.146 13.543-38.875 9.864-12.566 22.462-22.743 36.912-29.673q6.664-3.31 18.624-8.83c8-3.68 13.72-6.52 17.32-8.4s7.68-4.36 12.28-7.4c3.945-2.404 7.2-5.557 9.65-9.286 1.88-3.118 2.951-6.744 2.951-10.62 0-0.033 0-0.066 0-0.099q0-26.195-38.32-26.195c-11.39 0.516-21.961 3.565-31.309 8.591-8.863 4.036-16.736 8.52-24.165 13.607-3.926 3.002-7.446 5.802-10.206 8.042l-30.96-51.2 3.68-3.36c3.581-2.837 7.593-5.561 11.8-7.985q8.72-5.135 19.12-10.175c7.354-3.494 15.982-6.542 24.959-8.694 10.139-2.605 20.939-4.343 32.021-5.041l0.501-46.385h36.28v48.64c20.922 2.969 39.234 12.416 53.252 26.212q19.988 20.508 19.988 57.468c-0.084 16.951-7.148 32.236-18.462 43.142-12.358 12.604-27.093 22.789-43.494 29.84z" />
<glyph unicode="&#xe935;" glyph-name="ek-054" d="M942 709h-656c-17.894 0-32.4-14.506-32.4-32.4v-656c0-17.894 14.506-32.4 32.4-32.4h656c17.894 0 32.4 14.506 32.4 32.4v656c0 17.894-14.506 32.4-32.4 32.4zM912.48 49.96h-597.12v597.080h597.12zM955.32 816.4h-749.96v72.44c-0.045 17.205-13.992 31.137-31.198 31.16h-0.002c-17.253 0-31.24-13.987-31.24-31.24v-72.36h-73.24c-0.333 0.013-0.725 0.020-1.118 0.020-17.253 0-31.24-13.987-31.24-31.24s13.987-31.24 31.24-31.24c0.393 0 0.784 0.007 1.174 0.022l73.184-0.002v-750.72c0-17.253 13.987-31.24 31.24-31.24v0c17.236 0.023 31.2 14.001 31.2 31.24 0 0 0 0 0 0v750.72h749.96c16.766 0.619 30.122 14.36 30.122 31.22s-13.357 30.601-30.066 31.218z" />
<glyph unicode="&#xe936;" glyph-name="ek-055" d="M981.28 775.68v0c0 17.673-14.327 32-32 32h-80.32v80.32c0 17.673-14.327 32-32 32v0c-17.673 0-32-14.327-32-32v-80.24h-154.4v80.24c0 17.673-14.327 32-32 32v0c-17.673 0-32-14.327-32-32v-80.24h-152.44v80.24c0 17.673-14.327 32-32 32v0c-17.673 0-32-14.327-32-32v-80.24h-152.44v80.24c0 17.673-14.327 32-32 32v0c-17.673 0-32-14.327-32-32v-80.24h-80.4c-17.673 0-32-14.327-32-32v0c0-17.673 14.327-32 32-32h80.24v-154.4h-80.24c-17.673 0-32-14.327-32-32v0c0-17.673 14.327-32 32-32h80.24v-152.28h-80.24c-17.673 0-32-14.327-32-32v0c0-17.673 14.327-32 32-32h80.24v-152.28h-80.24c-17.673 0-32-14.327-32-32v0c0-17.673 14.327-32 32-32h80.24v-80.8c0-17.673 14.327-32 32-32v0c17.673 0 32 14.327 32 32v80.32h152.48v-80.32c0-17.673 14.327-32 32-32v0c17.673 0 32 14.327 32 32v80.32h152.28v-80.32c0-17.673 14.327-32 32-32v0c17.673 0 32 14.327 32 32v80.32h154.52v-80.32c0-17.673 14.327-32 32-32v0c17.673 0 32 14.327 32 32v80.32h80.4c17.673 0 32 14.327 32 32v0c0 17.673-14.327 32-32 32h-80.24v152.44h80.24c17.673 0 32 14.327 32 32v0c0 17.673-14.327 32-32 32h-80.24v152.44h80.24c17.673 0 32 14.327 32 32v0c0 17.673-14.327 32-32 32h-80.24v154.4h80.24c0.024 0 0.052 0 0.080 0 17.673 0 32 14.327 32 32 0 0.028 0 0.056 0 0.084zM586.4 743.68v-154.32h-152.28v154.24zM586.4 525.28v-152.28h-152.28v152.2zM217.68 743.6h152.32v-154.24h-152.32zM217.68 525.2h152.32v-152.28h-152.32zM217.68 156.44v152.32h152.32v-152.28zM434.12 156.44v152.32h152.28v-152.28zM804.8 156.44h-154.24v152.32h154.24zM804.8 372.88h-154.24v152.32h154.24zM804.8 589.32h-154.24v154.28h154.24z" />
<glyph unicode="&#xe937;" glyph-name="ek-056" d="M882.84 736l-78.28 94.6c-6.9 8.216-17.178 13.401-28.666 13.401-0.117 0-0.234-0.001-0.352-0.002l-156.422-0.52v36.52c0 20.774-16.829 37.617-37.598 37.64h-131.602c-20.771-0.023-37.6-16.866-37.6-37.64v-37h-33.12c-20.64-0.136-37.32-16.9-37.32-37.559 0-0.014 0-0.029 0-0.043l0.68-189.918c0-20.686 16.758-37.457 37.438-37.48h32.202v-13.080h-163.2c-0.012 0-0.027 0-0.041 0-11.261 0-21.357-4.987-28.199-12.874l-75.639-86.766c-5.709-6.547-9.19-15.167-9.19-24.6s3.481-18.053 9.228-24.645l75.522-86.795c6.897-7.957 17.019-12.96 28.31-12.96 0.004 0 0.007 0 0.011 0h163.359v-298.92c0-20.633 16.727-37.36 37.36-37.36h132c20.633 0 37.36 16.727 37.36 37.36v298.92h19.76c20.727 0.023 37.52 16.83 37.52 37.56v173.68c-0.023 20.713-16.807 37.497-37.518 37.52h-19.762v13.76l157.48 0.52c11.578 0.059 21.901 5.381 28.707 13.694l77.653 95.346c5.314 6.406 8.539 14.712 8.539 23.772 0 9.103-3.256 17.446-8.667 23.928zM249 524.28v0zM578.4 20.72h-125.32v295.56h125.32zM635.68 524.28v-167.28l-384.24-1-73.76 84.64 72.8 83.64zM453.080 565v13.2l125.32 0.44v-13.64zM453.080 877h125.32v-33.32l-125.32-0.44zM774.8 620l-391.52-1.36-0.68 183.36 390.56 2.56 76.56-92.56z" />
<glyph unicode="&#xe938;" glyph-name="ek-057" d="M896.8 718.8c-9.956 40.227-45.74 69.579-88.38 69.579s-78.424-29.353-88.249-68.954l-34.051-0.625c-9.956 40.227-45.74 69.579-88.38 69.579s-78.424-29.353-88.249-68.954l-22.291-0.625c-9.956 40.227-45.74 69.579-88.38 69.579s-78.424-29.353-88.249-68.954l-33.971-0.625c-10.076 40.062-45.779 69.251-88.3 69.251s-78.224-29.189-88.166-68.623l-54.654-0.628v-43.48h54.52c9.986-40.185 45.75-69.497 88.36-69.497s78.374 29.311 88.228 68.871l34.052 0.626c9.986-40.185 45.75-69.497 88.36-69.497s78.374 29.311 88.228 68.871l22.292 0.626c9.986-40.185 45.75-69.497 88.36-69.497s78.374 29.311 88.228 68.871l33.892 0.626c9.986-40.185 45.75-69.497 88.36-69.497s78.374 29.311 88.228 68.871l85.252 0.626v43.48zM230.52 675.32c-7.983-15.576-23.928-26.051-42.32-26.051s-34.337 10.475-42.196 25.784c-3.337 6.536-5.221 13.943-5.221 21.79 0 26.304 21.159 47.667 47.385 47.996 26.441-0.246 47.785-21.59 48.031-47.976-0.162-7.934-2.246-15.323-5.803-21.788zM441.16 675.32c-7.983-15.576-23.928-26.051-42.32-26.051s-34.337 10.475-42.196 25.784c-3.337 6.536-5.221 13.943-5.221 21.79 0 26.304 21.159 47.667 47.385 47.996 26.441-0.246 47.785-21.59 48.031-47.976-0.148-7.93-2.219-15.32-5.763-21.789zM640.040 675.32c-7.983-15.576-23.928-26.051-42.32-26.051s-34.337 10.475-42.196 25.784c-3.573 6.554-5.602 14.044-5.602 22.007s2.029 15.453 5.598 21.979c8.19 14.775 23.936 24.772 42.017 24.772 26.063 0 47.275-20.773 47.982-46.666-0.065-8.040-2.101-15.524-5.642-22.075zM850.68 675.32c-7.983-15.576-23.928-26.051-42.32-26.051s-34.337 10.475-42.196 25.784c-3.573 6.554-5.602 14.044-5.602 22.007s2.029 15.453 5.598 21.979c8.19 14.775 23.936 24.772 42.017 24.772 26.063 0 47.275-20.773 47.982-46.666-0.025-8.026-2.020-15.515-5.522-22.079zM398.84 278.56c-42.575-0.124-78.279-29.388-88.226-68.89l-34.054-0.63c-9.986 40.185-45.75 69.497-88.36 69.497s-78.374-29.311-88.228-68.871l-54.492-0.626v-43.48h54.52c9.956-40.227 45.74-69.579 88.38-69.579s78.424 29.353 88.249 68.954l34.051 0.625c9.956-40.227 45.74-69.579 88.38-69.579s78.424 29.353 88.249 68.954l494.611 0.625v43.48h-494.68c-10.084 40.145-45.809 69.415-88.388 69.52zM230.52 165.56c-7.983-15.576-23.928-26.051-42.32-26.051s-34.337 10.475-42.196 25.784c-3.415 6.583-5.344 14.060-5.344 21.987 0 26.308 21.253 47.652 47.526 47.799 18.385-0.066 34.3-10.511 42.209-25.774 3.574-6.553 5.603-14.042 5.603-22.006s-2.029-15.453-5.598-21.979zM441.16 165.56c-7.983-15.576-23.928-26.051-42.32-26.051s-34.337 10.475-42.196 25.784c-3.415 6.583-5.344 14.060-5.344 21.987 0 26.308 21.253 47.652 47.526 47.799 18.385-0.066 34.3-10.511 42.209-25.774 3.574-6.553 5.603-14.042 5.603-22.006s-2.029-15.453-5.598-21.979zM610.52 533.44c-42.554-0.114-78.249-29.342-88.225-68.81l-35.055-0.63c-9.986 40.185-45.75 69.497-88.36 69.497s-78.374-29.311-88.228-68.871l-34.092-0.626c-10.105 40.021-45.789 69.169-88.28 69.169s-78.175-29.149-88.145-68.541l-54.655-0.628v-43.48h54.52c9.956-40.227 45.74-69.579 88.38-69.579s78.424 29.353 88.249 68.954l34.051 0.625c9.956-40.227 45.74-69.579 88.38-69.579s78.424 29.353 88.249 68.954l35.051 0.625c9.956-40.227 45.74-69.579 88.38-69.579s78.424 29.353 88.249 68.954l283.131 0.625v43.48h-283.24c-10.111 40.098-45.806 69.326-88.347 69.44zM230.52 420.44c-7.983-15.576-23.928-26.051-42.32-26.051s-34.337 10.475-42.196 25.784c-3.415 6.583-5.344 14.060-5.344 21.987 0 26.308 21.253 47.652 47.526 47.799 18.369-0.050 34.28-10.464 42.209-25.696 3.574-6.552 5.603-14.041 5.603-22.004s-2.029-15.453-5.598-21.979zM441.16 420.44c-7.983-15.576-23.928-26.051-42.32-26.051s-34.337 10.475-42.196 25.784c-3.415 6.583-5.344 14.060-5.344 21.987 0 26.308 21.253 47.652 47.526 47.799 18.385-0.034 34.314-10.452 42.249-25.696 3.574-6.552 5.603-14.041 5.603-22.004s-2.029-15.453-5.598-21.979zM652.8 420.44c-7.983-15.576-23.928-26.051-42.32-26.051s-34.337 10.475-42.196 25.784c-3.415 6.583-5.344 14.060-5.344 21.987 0 26.308 21.253 47.652 47.526 47.799 18.385-0.034 34.314-10.452 42.249-25.696 3.574-6.552 5.603-14.041 5.603-22.004s-2.029-15.453-5.598-21.979z" />
<glyph unicode="&#xe939;" glyph-name="ek-058" d="M965.8 423.56c-3.403 2.169-7.428 4.383-11.594 6.349l-139.486 70.531v4.44c-0.016 15.716-8.493 29.449-21.12 36.891l-88.2 51.629v157.28c-0.026 10.283-5.023 19.394-12.714 25.060-3.617 2.308-7.752 4.539-12.045 6.481l-150.881 76.26c-3.319 1.74-7.25 2.761-11.42 2.761s-8.101-1.021-11.558-2.826l-150.022-75.934-3.12-1.32c-4.253-1.589-7.865-3.325-11.293-5.341-7.892-5.393-13.406-14.436-14.101-24.799l-0.005-159.020-88.24-50.16c-12.822-7.557-21.295-21.286-21.32-36.996v-1.124l-145.24-73.52-3.12-1.32c-4.296-1.608-7.947-3.372-11.41-5.421-7.896-5.394-13.41-14.437-14.105-24.8l-0.005-168.42c0.623-11.175 6.827-20.775 15.85-26.118l152.43-91.562c2.95-1.629 6.402-2.763 10.070-3.188l2.010-0.332c2.819-0.438 6.070-0.689 9.38-0.689s6.561 0.25 9.736 0.733l1.644 0.355c3.645 0.467 6.943 1.597 9.893 3.27l43.107 26.49 196.32-113.56c6.125-3.58 13.486-5.693 21.34-5.693s15.215 2.114 21.544 5.803l192.076 110.53 39.64-24c2.95-1.629 6.402-2.763 10.070-3.188l2.050-0.332c2.819-0.438 6.070-0.689 9.38-0.689s6.561 0.25 9.736 0.733l1.644 0.355c3.645 0.467 6.943 1.597 9.893 3.27l151.587 93.17c8.615 5.539 14.24 15.075 14.24 25.926 0 0.054 0 0.108 0 0.163v166.712c0 0.018 0 0.039 0 0.061 0 10.248-4.935 19.344-12.558 25.041zM217.8 296.4v-138.24l-133.28 78.6v130.68zM908.4 407.68l-115.040-65.24-117.72 65.56 116 58.8zM774.8 296.36v-138.24l-133.44 78.64v130.68zM382.080 367.12v-128.72l-124.36-79.6v137.68zM368 589.040v130.72l133.44-71.080v-138.28zM541.2 511.080v137.68l124.32 70.64v-128.72zM407.56 205.96c8.615 5.539 14.24 15.075 14.24 25.926 0 0.054 0 0.108 0 0.163v166.352c-0.026 10.283-5.023 19.394-12.714 25.060-3.529 2.283-7.556 4.498-11.737 6.438l-137.789 69.702v5.28c0 0 0 0.001 0 0.001 0 0.691 0.365 1.296 0.912 1.634l85.648 48.685 150.52-90.4c2.917-1.601 6.327-2.72 9.948-3.147l2.172-0.373c2.825-0.459 6.082-0.72 9.4-0.72s6.575 0.262 9.751 0.766l1.649 0.314c3.631 0.467 6.915 1.597 9.852 3.269l148.588 91.371 85.16-49.8c0.577-0.328 0.96-0.939 0.96-1.64 0 0 0 0 0-0.001v-1.96l-143.68-72.72-3.12-1.32c-4.386-1.594-8.119-3.359-11.658-5.422-7.888-5.393-13.401-14.435-14.096-24.798l-0.005-168.42c0.63-11.173 6.832-20.77 15.85-26.118l72.75-43.682-172.64-99.32c-0.266-0.171-0.591-0.272-0.94-0.272s-0.674 0.101-0.947 0.276l-177.033 102.516zM520 694.76l-117.72 65.24 116 58.8 116.76-58.8zM351.6 407.68l-115.040-65.2-117.72 65.52 116 58.8zM938.84 367.12v-128.72l-124.32-79.6v137.68z" />
<glyph unicode="&#xe93a;" glyph-name="ek-059" d="M957.92 599.24l-294.72 294.72c-13.337 13.245-31.712 21.432-52 21.432s-38.663-8.186-52.004-21.436l-489.676-489.596c-13.268-13.335-21.491-31.701-21.56-51.987v-294.773c0.046-40.63 32.97-73.554 73.596-73.6h294.684c0.050 0 0.11 0 0.17 0 20.258 0 38.59 8.242 51.827 21.557l489.603 489.604c13.303 13.31 21.53 31.694 21.53 52s-8.228 38.69-21.531 52zM913.92 539.24l-489.68-489.64c-2.051-2.042-4.877-3.308-7.998-3.32h-294.682c0 0 0 0 0 0-6.238 0-11.297 5.045-11.32 11.278v294.722c0.007 3.124 1.274 5.951 3.32 8l489.6 489.6c2.052 2.036 4.879 3.295 8 3.295s5.948-1.258 8.001-3.295l294.679-294.719c2.056-2.044 3.328-4.873 3.328-8s-1.272-5.956-3.327-7.999zM662.414 598.418c28.618-28.618 28.618-75.016 0-103.634s-75.016-28.618-103.634 0c-28.618 28.618-28.618 75.016 0 103.634s75.016 28.618 103.634 0z" />
<glyph unicode="&#xe93b;" glyph-name="ek-060" d="M946.24 796.36c17.397 0 31.5 14.103 31.5 31.5s-14.103 31.5-31.5 31.5h-795.4v25.16c0 17.397-14.103 31.5-31.5 31.5s-31.5-14.103-31.5-31.5v-25.16h-12.56c-17.397 0-31.5-14.103-31.5-31.5s14.103-31.5 31.5-31.5h12.72v-749.36h-22.8c-17.397 0-31.5-14.103-31.5-31.5s14.103-31.5 31.5-31.5h108.32c17.397 0 31.5 14.103 31.5 31.5s-14.103 31.5-31.5 31.5h-22.68v749.36h168v-56.68h-87.36c-24.831 0-44.96-20.129-44.96-44.96v-388.68c0-24.831 20.129-44.96 44.96-44.96h678.36c24.831 0 44.96 20.129 44.96 44.96v388.68c0 24.831-20.129 44.96-44.96 44.96h-85.84v56.68zM382 796.36h379v-56.68h-379zM892 676.68v-352.68h-642.48v352.68zM495.28 387.040c4.839-5.023 11.624-8.142 19.137-8.142 7.336 0 13.977 2.974 18.783 7.782l197.64 197.64c7.156 5.913 11.682 14.789 11.682 24.722 0 17.673-14.327 32-32 32-9.933 0-18.809-4.526-24.679-11.628l-170.923-170.934-49.92 51.8c-5.817 5.958-13.929 9.653-22.904 9.653-8.575 0-16.362-3.373-22.108-8.864l0.012 0.011c-5.982-5.821-9.694-13.949-9.694-22.944 0-8.575 3.373-16.363 8.865-22.108z" />
<glyph unicode="&#xe93c;" glyph-name="ek-061" d="M511.32 574.080c-106.834 0-193.44-86.606-193.44-193.44s86.606-193.44 193.44-193.44c106.834 0 193.44 86.606 193.44 193.44-0.114 106.788-86.652 193.326-193.429 193.44zM511.32 237.2c-79.22 0-143.44 64.22-143.44 143.44s64.22 143.44 143.44 143.44c79.22 0 143.44-64.22 143.44-143.44-0.114-79.174-64.266-143.326-143.429-143.44zM917.76 690.64h-148.76l-66.72 96c-9.914 14.55-26.295 24.057-44.914 24.359l-298.166 0.001c-19.317-0.303-36.198-10.46-45.867-25.656l-61.693-94.704h-41.36c0.269 0.721 0.442 1.554 0.479 2.423l0.001 24.617c0 4.661-3.779 8.44-8.44 8.44h-62.88c-4.661 0-8.44-3.779-8.44-8.44v-24.6c0.038-0.886 0.211-1.719 0.498-2.497l-26.618 0.057c-32.56 0-59.040-28.84-59.040-64.32v-474c0-35.44 26.48-64.32 59.040-64.32h812.88c32.56 0 59.040 28.84 59.040 64.32v474c0 35.48-26.48 64.32-59.040 64.32zM359.2 751.040l299.28-0.68 39.76-57.12h-377.16zM921.88 152.32c0.002-0.051 0.003-0.111 0.003-0.172 0-2.274-1.758-4.138-3.989-4.307l-813.015-0.001c-2.242 0.149-4.005 2.004-4.005 4.271 0 0.073 0.002 0.146 0.006 0.219v473.99c-0.002 0.050-0.003 0.11-0.003 0.169 0 2.266 1.762 4.121 3.99 4.27l812.893 0.001c2.245-0.171 4.002-2.034 4.002-4.308 0-0.046-0.001-0.092-0.002-0.138z" />
<glyph unicode="&#xe93d;" glyph-name="ek-062" d="M909.48 394.8c-1.4 0-288 0.36-429.96 0-5.2 0-4.88 2.48-4.88 6 0 140.72 0 426.48 0 429.32-9.28-0.6-18.12-0.92-26.88-1.8-69.051-6.546-131.693-29.277-185.587-64.328q-142.173-91.672-183.413-258.072c-5.385-21.127-9.117-45.78-10.403-71.078-0.241-2.666-0.522-4.202-0.892-5.703l0.054-39.939c0.88-8.96 1.72-17.92 2.68-26.84 7.263-67.683 30.050-128.864 64.71-181.538 52.588-81.965 132.926-144.258 227.732-173.672 32.177-10.262 65.985-16.579 100.985-18.39 2.934-0.237 4.653-0.505 6.341-0.857l38.032 0.057c9.12 0.88 18.28 1.68 27.4 2.68 59.892 6.29 114.341 24.811 162.413 53.027q151.587 88.013 198.547 259.493c7.395 26.532 12.146 57.197 13.183 88.802 0.057 1.198-0.023 1.798-0.063 2.838zM981.32 515.16c-7.020 67.451-28.951 128.599-62.426 181.745q-90.974 146.255-259.534 192.935c-25.618 7.299-55.356 12.25-85.991 13.801-2.809 0.039-4.649 0.559-6.449 0.839h-19.64c0-1.4 0-2.8 0-4 0-142.56 0-430.72 0.24-432.76h430.88c1.88 0 3.72 0 5.6 0.24v19.64c-0.88 9.040-1.68 18.32-2.68 27.56zM610.48 822.32c64.7-10.517 121.781-37.411 168.575-76.264l-168.575-163.056zM647.48 530.92l175.56 170.84c32.48-29.28 74.6-121 78.44-170.84z" />
<glyph unicode="&#xe93e;" glyph-name="ek-063" d="M462.76-28c0.019 0 0.042 0 0.064 0 111.782 0 202.4 90.618 202.4 202.4 0 83.623-50.713 155.402-123.062 186.259l23.638 49.101c11.055-2.726 23.747-4.291 36.804-4.291 88.366 0 160 71.634 160 160s-71.634 160-160 160c-27.447 0-53.28-6.911-75.854-19.088l-48.75 51.659c9.007 15.772 14.317 34.661 14.317 54.791 0 61.856-50.144 112-112 112s-112-50.144-112-112c0-61.856 50.144-112 112-112 20.734 0 40.151 5.634 56.806 15.454l44.157-46.445c-24.293-27.833-39.106-64.485-39.106-104.598 0-54.478 27.322-102.574 69.011-131.333l-29.105-57.909c-6.36 0.6-12.8 1-19.32 1-111.805 0-202.44-90.635-202.44-202.44s90.635-202.44 202.44-202.44zM433.24 812.4c0-29.050-23.55-52.6-52.6-52.6s-52.6 23.55-52.6 52.6c0 29.050 23.55 52.6 52.6 52.6 29.032-0.045 52.555-23.568 52.6-52.596zM602.080 464.4c-55.719 0.023-100.88 45.197-100.88 100.92 0 55.737 45.183 100.92 100.92 100.92s100.92-45.183 100.92-100.92c-0.091-55.706-45.248-100.835-100.956-100.88zM462.76 31c-79.22 0-143.44 64.22-143.44 143.44s64.22 143.44 143.44 143.44c79.22 0 143.44-64.22 143.44-143.44-0.091-79.183-64.257-143.349-143.431-143.44z" />
</font>
</defs>
</svg>
